<svg width="512" height="512" viewBox="0 0 512 512" fill="none" xmlns="http://www.w3.org/2000/svg">
<g clip-path="url(#clip0_1289_111)">
<rect width="512" height="512" fill="#4E617C"/>
<path d="M34.1429 0H68.2857V34.1429H34.1429V0Z" fill="#424A56"/>
<path d="M102.429 0H136.571V34.1429H102.429V0Z" fill="#424A56"/>
<path d="M170.714 0H204.857V34.1429H170.714V0Z" fill="#424A56"/>
<path d="M239 0H273.143V34.1429H239V0Z" fill="#424A56"/>
<path d="M307.286 0H341.429V34.1429H307.286V0Z" fill="#424A56"/>
<path d="M375.571 0H409.714V34.1429H375.571V0Z" fill="#424A56"/>
<path d="M443.857 0H478V34.1429H443.857V0Z" fill="#424A56"/>
<path d="M512.143 0H546.286V34.1429H512.143V0Z" fill="#424A56"/>
<path d="M580.429 0H614.571V34.1429H580.429V0Z" fill="#424A56"/>
<path d="M648.714 0H682.857V34.1429H648.714V0Z" fill="#424A56"/>
<path d="M717 0H751.143V34.1429H717V0Z" fill="#424A56"/>
<path d="M785.286 0H819.429V34.1429H785.286V0Z" fill="#424A56"/>
<path d="M853.571 0H887.714V34.1429H853.571V0Z" fill="#424A56"/>
<path d="M921.857 0H956V34.1429H921.857V0Z" fill="#424A56"/>
<path d="M990.143 0H1024.29V34.1429H990.143V0Z" fill="#424A56"/>
<path d="M1058.43 0H1092.57V34.1429H1058.43V0Z" fill="#424A56"/>
<path d="M1126.71 0H1160.86V34.1429H1126.71V0Z" fill="#424A56"/>
<path d="M1195 0H1229.14V34.1429H1195V0Z" fill="#424A56"/>
<path d="M1263.29 0H1297.43V34.1429H1263.29V0Z" fill="#424A56"/>
<path d="M1331.57 0H1365.71V34.1429H1331.57V0Z" fill="#424A56"/>
<path d="M1399.86 0H1434V34.1429H1399.86V0Z" fill="#424A56"/>
<path d="M1468.14 0H1502.29V34.1429H1468.14V0Z" fill="#424A56"/>
<path d="M0 34.1429H34.1429V68.2857H0V34.1429Z" fill="#424A56"/>
<path d="M68.2857 34.1429H102.429V68.2857H68.2857V34.1429Z" fill="#424A56"/>
<path d="M136.571 34.1429H170.714V68.2857H136.571V34.1429Z" fill="#424A56"/>
<path d="M204.857 34.1429H239V68.2857H204.857V34.1429Z" fill="#424A56"/>
<path d="M273.143 34.1429H307.286V68.2857H273.143V34.1429Z" fill="#424A56"/>
<path d="M341.429 34.1429H375.571V68.2857H341.429V34.1429Z" fill="#424A56"/>
<path d="M409.714 34.1429H443.857V68.2857H409.714V34.1429Z" fill="#424A56"/>
<path d="M478 34.1429H512.143V68.2857H478V34.1429Z" fill="#424A56"/>
<path d="M546.286 34.1429H580.429V68.2857H546.286V34.1429Z" fill="#424A56"/>
<path d="M614.571 34.1429H648.714V68.2857H614.571V34.1429Z" fill="#424A56"/>
<path d="M682.857 34.1429H717V68.2857H682.857V34.1429Z" fill="#424A56"/>
<path d="M751.143 34.1429H785.286V68.2857H751.143V34.1429Z" fill="#424A56"/>
<path d="M819.429 34.1429H853.571V68.2857H819.429V34.1429Z" fill="#424A56"/>
<path d="M887.714 34.1429H921.857V68.2857H887.714V34.1429Z" fill="#424A56"/>
<path d="M956 34.1429H990.143V68.2857H956V34.1429Z" fill="#424A56"/>
<path d="M1024.29 34.1429H1058.43V68.2857H1024.29V34.1429Z" fill="#424A56"/>
<path d="M1092.57 34.1429H1126.71V68.2857H1092.57V34.1429Z" fill="#424A56"/>
<path d="M1160.86 34.1429H1195V68.2857H1160.86V34.1429Z" fill="#424A56"/>
<path d="M1229.14 34.1429H1263.29V68.2857H1229.14V34.1429Z" fill="#424A56"/>
<path d="M1297.43 34.1429H1331.57V68.2857H1297.43V34.1429Z" fill="#424A56"/>
<path d="M1365.71 34.1429H1399.86V68.2857H1365.71V34.1429Z" fill="#424A56"/>
<path d="M1434 34.1429H1468.14V68.2857H1434V34.1429Z" fill="#424A56"/>
<path d="M34.1429 68.2857H68.2857V102.429H34.1429V68.2857Z" fill="#424A56"/>
<path d="M102.429 68.2857H136.571V102.429H102.429V68.2857Z" fill="#424A56"/>
<path d="M170.714 68.2857H204.857V102.429H170.714V68.2857Z" fill="#424A56"/>
<path d="M239 68.2857H273.143V102.429H239V68.2857Z" fill="#424A56"/>
<path d="M307.286 68.2857H341.429V102.429H307.286V68.2857Z" fill="#424A56"/>
<path d="M375.571 68.2857H409.714V102.429H375.571V68.2857Z" fill="#424A56"/>
<path d="M443.857 68.2857H478V102.429H443.857V68.2857Z" fill="#424A56"/>
<path d="M512.143 68.2857H546.286V102.429H512.143V68.2857Z" fill="#424A56"/>
<path d="M580.429 68.2857H614.571V102.429H580.429V68.2857Z" fill="#424A56"/>
<path d="M648.714 68.2857H682.857V102.429H648.714V68.2857Z" fill="#424A56"/>
<path d="M717 68.2857H751.143V102.429H717V68.2857Z" fill="#424A56"/>
<path d="M785.286 68.2857H819.429V102.429H785.286V68.2857Z" fill="#424A56"/>
<path d="M853.571 68.2857H887.714V102.429H853.571V68.2857Z" fill="#424A56"/>
<path d="M921.857 68.2857H956V102.429H921.857V68.2857Z" fill="#424A56"/>
<path d="M990.143 68.2857H1024.29V102.429H990.143V68.2857Z" fill="#424A56"/>
<path d="M1058.43 68.2857H1092.57V102.429H1058.43V68.2857Z" fill="#424A56"/>
<path d="M1126.71 68.2857H1160.86V102.429H1126.71V68.2857Z" fill="#424A56"/>
<path d="M1195 68.2857H1229.14V102.429H1195V68.2857Z" fill="#424A56"/>
<path d="M1263.29 68.2857H1297.43V102.429H1263.29V68.2857Z" fill="#424A56"/>
<path d="M1331.57 68.2857H1365.71V102.429H1331.57V68.2857Z" fill="#424A56"/>
<path d="M1399.86 68.2857H1434V102.429H1399.86V68.2857Z" fill="#424A56"/>
<path d="M1468.14 68.2857H1502.29V102.429H1468.14V68.2857Z" fill="#424A56"/>
<path d="M0 102.429H34.1429V136.571H0V102.429Z" fill="#424A56"/>
<path d="M68.2857 102.429H102.429V136.571H68.2857V102.429Z" fill="#424A56"/>
<path d="M136.571 102.429H170.714V136.571H136.571V102.429Z" fill="#424A56"/>
<path d="M204.857 102.429H239V136.571H204.857V102.429Z" fill="#424A56"/>
<path d="M273.143 102.429H307.286V136.571H273.143V102.429Z" fill="#424A56"/>
<path d="M341.429 102.429H375.571V136.571H341.429V102.429Z" fill="#424A56"/>
<path d="M409.714 102.429H443.857V136.571H409.714V102.429Z" fill="#424A56"/>
<path d="M478 102.429H512.143V136.571H478V102.429Z" fill="#424A56"/>
<path d="M546.286 102.429H580.429V136.571H546.286V102.429Z" fill="#424A56"/>
<path d="M614.571 102.429H648.714V136.571H614.571V102.429Z" fill="#424A56"/>
<path d="M682.857 102.429H717V136.571H682.857V102.429Z" fill="#424A56"/>
<path d="M751.143 102.429H785.286V136.571H751.143V102.429Z" fill="#424A56"/>
<path d="M819.429 102.429H853.571V136.571H819.429V102.429Z" fill="#424A56"/>
<path d="M887.714 102.429H921.857V136.571H887.714V102.429Z" fill="#424A56"/>
<path d="M956 102.429H990.143V136.571H956V102.429Z" fill="#424A56"/>
<path d="M1024.29 102.429H1058.43V136.571H1024.29V102.429Z" fill="#424A56"/>
<path d="M1092.57 102.429H1126.71V136.571H1092.57V102.429Z" fill="#424A56"/>
<path d="M1160.86 102.429H1195V136.571H1160.86V102.429Z" fill="#424A56"/>
<path d="M1229.14 102.429H1263.29V136.571H1229.14V102.429Z" fill="#424A56"/>
<path d="M1297.43 102.429H1331.57V136.571H1297.43V102.429Z" fill="#424A56"/>
<path d="M1365.71 102.429H1399.86V136.571H1365.71V102.429Z" fill="#424A56"/>
<path d="M1434 102.429H1468.14V136.571H1434V102.429Z" fill="#424A56"/>
<path d="M34.1429 136.571H68.2857V170.714H34.1429V136.571Z" fill="#424A56"/>
<path d="M102.429 136.571H136.571V170.714H102.429V136.571Z" fill="#424A56"/>
<path d="M170.714 136.571H204.857V170.714H170.714V136.571Z" fill="#424A56"/>
<path d="M239 136.571H273.143V170.714H239V136.571Z" fill="#424A56"/>
<path d="M307.286 136.571H341.429V170.714H307.286V136.571Z" fill="#424A56"/>
<path d="M375.571 136.571H409.714V170.714H375.571V136.571Z" fill="#424A56"/>
<path d="M443.857 136.571H478V170.714H443.857V136.571Z" fill="#424A56"/>
<path d="M512.143 136.571H546.286V170.714H512.143V136.571Z" fill="#424A56"/>
<path d="M580.429 136.571H614.571V170.714H580.429V136.571Z" fill="#424A56"/>
<path d="M648.714 136.571H682.857V170.714H648.714V136.571Z" fill="#424A56"/>
<path d="M717 136.571H751.143V170.714H717V136.571Z" fill="#424A56"/>
<path d="M785.286 136.571H819.429V170.714H785.286V136.571Z" fill="#424A56"/>
<path d="M853.571 136.571H887.714V170.714H853.571V136.571Z" fill="#424A56"/>
<path d="M921.857 136.571H956V170.714H921.857V136.571Z" fill="#424A56"/>
<path d="M990.143 136.571H1024.29V170.714H990.143V136.571Z" fill="#424A56"/>
<path d="M1058.43 136.571H1092.57V170.714H1058.43V136.571Z" fill="#424A56"/>
<path d="M1126.71 136.571H1160.86V170.714H1126.71V136.571Z" fill="#424A56"/>
<path d="M1195 136.571H1229.14V170.714H1195V136.571Z" fill="#424A56"/>
<path d="M1263.29 136.571H1297.43V170.714H1263.29V136.571Z" fill="#424A56"/>
<path d="M1331.57 136.571H1365.71V170.714H1331.57V136.571Z" fill="#424A56"/>
<path d="M1399.86 136.571H1434V170.714H1399.86V136.571Z" fill="#424A56"/>
<path d="M1468.14 136.571H1502.29V170.714H1468.14V136.571Z" fill="#424A56"/>
<path d="M0 170.714H34.1429V204.857H0V170.714Z" fill="#424A56"/>
<path d="M68.2857 170.714H102.429V204.857H68.2857V170.714Z" fill="#424A56"/>
<path d="M136.571 170.714H170.714V204.857H136.571V170.714Z" fill="#424A56"/>
<path d="M204.857 170.714H239V204.857H204.857V170.714Z" fill="#424A56"/>
<path d="M273.143 170.714H307.286V204.857H273.143V170.714Z" fill="#424A56"/>
<path d="M341.429 170.714H375.571V204.857H341.429V170.714Z" fill="#424A56"/>
<path d="M409.714 170.714H443.857V204.857H409.714V170.714Z" fill="#424A56"/>
<path d="M478 170.714H512.143V204.857H478V170.714Z" fill="#424A56"/>
<path d="M546.286 170.714H580.429V204.857H546.286V170.714Z" fill="#424A56"/>
<path d="M614.571 170.714H648.714V204.857H614.571V170.714Z" fill="#424A56"/>
<path d="M682.857 170.714H717V204.857H682.857V170.714Z" fill="#424A56"/>
<path d="M751.143 170.714H785.286V204.857H751.143V170.714Z" fill="#424A56"/>
<path d="M819.429 170.714H853.571V204.857H819.429V170.714Z" fill="#424A56"/>
<path d="M887.714 170.714H921.857V204.857H887.714V170.714Z" fill="#424A56"/>
<path d="M956 170.714H990.143V204.857H956V170.714Z" fill="#424A56"/>
<path d="M1024.29 170.714H1058.43V204.857H1024.29V170.714Z" fill="#424A56"/>
<path d="M1092.57 170.714H1126.71V204.857H1092.57V170.714Z" fill="#424A56"/>
<path d="M1160.86 170.714H1195V204.857H1160.86V170.714Z" fill="#424A56"/>
<path d="M1229.14 170.714H1263.29V204.857H1229.14V170.714Z" fill="#424A56"/>
<path d="M1297.43 170.714H1331.57V204.857H1297.43V170.714Z" fill="#424A56"/>
<path d="M1365.71 170.714H1399.86V204.857H1365.71V170.714Z" fill="#424A56"/>
<path d="M1434 170.714H1468.14V204.857H1434V170.714Z" fill="#424A56"/>
<path d="M34.1429 204.857H68.2857V239H34.1429V204.857Z" fill="#424A56"/>
<path d="M102.429 204.857H136.571V239H102.429V204.857Z" fill="#424A56"/>
<path d="M170.714 204.857H204.857V239H170.714V204.857Z" fill="#424A56"/>
<path d="M239 204.857H273.143V239H239V204.857Z" fill="#424A56"/>
<path d="M307.286 204.857H341.429V239H307.286V204.857Z" fill="#424A56"/>
<path d="M375.571 204.857H409.714V239H375.571V204.857Z" fill="#424A56"/>
<path d="M443.857 204.857H478V239H443.857V204.857Z" fill="#424A56"/>
<path d="M512.143 204.857H546.286V239H512.143V204.857Z" fill="#424A56"/>
<path d="M580.429 204.857H614.571V239H580.429V204.857Z" fill="#424A56"/>
<path d="M648.714 204.857H682.857V239H648.714V204.857Z" fill="#424A56"/>
<path d="M717 204.857H751.143V239H717V204.857Z" fill="#424A56"/>
<path d="M785.286 204.857H819.429V239H785.286V204.857Z" fill="#424A56"/>
<path d="M853.571 204.857H887.714V239H853.571V204.857Z" fill="#424A56"/>
<path d="M921.857 204.857H956V239H921.857V204.857Z" fill="#424A56"/>
<path d="M990.143 204.857H1024.29V239H990.143V204.857Z" fill="#424A56"/>
<path d="M1058.43 204.857H1092.57V239H1058.43V204.857Z" fill="#424A56"/>
<path d="M1126.71 204.857H1160.86V239H1126.71V204.857Z" fill="#424A56"/>
<path d="M1195 204.857H1229.14V239H1195V204.857Z" fill="#424A56"/>
<path d="M1263.29 204.857H1297.43V239H1263.29V204.857Z" fill="#424A56"/>
<path d="M1331.57 204.857H1365.71V239H1331.57V204.857Z" fill="#424A56"/>
<path d="M1399.86 204.857H1434V239H1399.86V204.857Z" fill="#424A56"/>
<path d="M1468.14 204.857H1502.29V239H1468.14V204.857Z" fill="#424A56"/>
<path d="M0 239H34.1429V273.143H0V239Z" fill="#424A56"/>
<path d="M68.2857 239H102.429V273.143H68.2857V239Z" fill="#424A56"/>
<path d="M136.571 239H170.714V273.143H136.571V239Z" fill="#424A56"/>
<path d="M204.857 239H239V273.143H204.857V239Z" fill="#424A56"/>
<path d="M273.143 239H307.286V273.143H273.143V239Z" fill="#424A56"/>
<path d="M341.429 239H375.571V273.143H341.429V239Z" fill="#424A56"/>
<path d="M409.714 239H443.857V273.143H409.714V239Z" fill="#424A56"/>
<path d="M478 239H512.143V273.143H478V239Z" fill="#424A56"/>
<path d="M546.286 239H580.429V273.143H546.286V239Z" fill="#424A56"/>
<path d="M614.571 239H648.714V273.143H614.571V239Z" fill="#424A56"/>
<path d="M682.857 239H717V273.143H682.857V239Z" fill="#424A56"/>
<path d="M751.143 239H785.286V273.143H751.143V239Z" fill="#424A56"/>
<path d="M819.429 239H853.571V273.143H819.429V239Z" fill="#424A56"/>
<path d="M887.714 239H921.857V273.143H887.714V239Z" fill="#424A56"/>
<path d="M956 239H990.143V273.143H956V239Z" fill="#424A56"/>
<path d="M1024.29 239H1058.43V273.143H1024.29V239Z" fill="#424A56"/>
<path d="M1092.57 239H1126.71V273.143H1092.57V239Z" fill="#424A56"/>
<path d="M1160.86 239H1195V273.143H1160.86V239Z" fill="#424A56"/>
<path d="M1229.14 239H1263.29V273.143H1229.14V239Z" fill="#424A56"/>
<path d="M1297.43 239H1331.57V273.143H1297.43V239Z" fill="#424A56"/>
<path d="M1365.71 239H1399.86V273.143H1365.71V239Z" fill="#424A56"/>
<path d="M1434 239H1468.14V273.143H1434V239Z" fill="#424A56"/>
<path d="M34.1429 273.143H68.2857V307.286H34.1429V273.143Z" fill="#424A56"/>
<path d="M102.429 273.143H136.571V307.286H102.429V273.143Z" fill="#424A56"/>
<path d="M170.714 273.143H204.857V307.286H170.714V273.143Z" fill="#424A56"/>
<path d="M239 273.143H273.143V307.286H239V273.143Z" fill="#424A56"/>
<path d="M307.286 273.143H341.429V307.286H307.286V273.143Z" fill="#424A56"/>
<path d="M375.571 273.143H409.714V307.286H375.571V273.143Z" fill="#424A56"/>
<path d="M443.857 273.143H478V307.286H443.857V273.143Z" fill="#424A56"/>
<path d="M512.143 273.143H546.286V307.286H512.143V273.143Z" fill="#424A56"/>
<path d="M580.429 273.143H614.571V307.286H580.429V273.143Z" fill="#424A56"/>
<path d="M648.714 273.143H682.857V307.286H648.714V273.143Z" fill="#424A56"/>
<path d="M717 273.143H751.143V307.286H717V273.143Z" fill="#424A56"/>
<path d="M785.286 273.143H819.429V307.286H785.286V273.143Z" fill="#424A56"/>
<path d="M853.571 273.143H887.714V307.286H853.571V273.143Z" fill="#424A56"/>
<path d="M921.857 273.143H956V307.286H921.857V273.143Z" fill="#424A56"/>
<path d="M990.143 273.143H1024.29V307.286H990.143V273.143Z" fill="#424A56"/>
<path d="M1058.43 273.143H1092.57V307.286H1058.43V273.143Z" fill="#424A56"/>
<path d="M1126.71 273.143H1160.86V307.286H1126.71V273.143Z" fill="#424A56"/>
<path d="M1195 273.143H1229.14V307.286H1195V273.143Z" fill="#424A56"/>
<path d="M1263.29 273.143H1297.43V307.286H1263.29V273.143Z" fill="#424A56"/>
<path d="M1331.57 273.143H1365.71V307.286H1331.57V273.143Z" fill="#424A56"/>
<path d="M1399.86 273.143H1434V307.286H1399.86V273.143Z" fill="#424A56"/>
<path d="M1468.14 273.143H1502.29V307.286H1468.14V273.143Z" fill="#424A56"/>
<path d="M0 307.286H34.1429V341.429H0V307.286Z" fill="#424A56"/>
<path d="M68.2857 307.286H102.429V341.429H68.2857V307.286Z" fill="#424A56"/>
<path d="M136.571 307.286H170.714V341.429H136.571V307.286Z" fill="#424A56"/>
<path d="M204.857 307.286H239V341.429H204.857V307.286Z" fill="#424A56"/>
<path d="M273.143 307.286H307.286V341.429H273.143V307.286Z" fill="#424A56"/>
<path d="M341.429 307.286H375.571V341.429H341.429V307.286Z" fill="#424A56"/>
<path d="M409.714 307.286H443.857V341.429H409.714V307.286Z" fill="#424A56"/>
<path d="M478 307.286H512.143V341.429H478V307.286Z" fill="#424A56"/>
<path d="M546.286 307.286H580.429V341.429H546.286V307.286Z" fill="#424A56"/>
<path d="M614.571 307.286H648.714V341.429H614.571V307.286Z" fill="#424A56"/>
<path d="M682.857 307.286H717V341.429H682.857V307.286Z" fill="#424A56"/>
<path d="M751.143 307.286H785.286V341.429H751.143V307.286Z" fill="#424A56"/>
<path d="M819.429 307.286H853.571V341.429H819.429V307.286Z" fill="#424A56"/>
<path d="M887.714 307.286H921.857V341.429H887.714V307.286Z" fill="#424A56"/>
<path d="M956 307.286H990.143V341.429H956V307.286Z" fill="#424A56"/>
<path d="M1024.29 307.286H1058.43V341.429H1024.29V307.286Z" fill="#424A56"/>
<path d="M1092.57 307.286H1126.71V341.429H1092.57V307.286Z" fill="#424A56"/>
<path d="M1160.86 307.286H1195V341.429H1160.86V307.286Z" fill="#424A56"/>
<path d="M1229.14 307.286H1263.29V341.429H1229.14V307.286Z" fill="#424A56"/>
<path d="M1297.43 307.286H1331.57V341.429H1297.43V307.286Z" fill="#424A56"/>
<path d="M1365.71 307.286H1399.86V341.429H1365.71V307.286Z" fill="#424A56"/>
<path d="M1434 307.286H1468.14V341.429H1434V307.286Z" fill="#424A56"/>
<path d="M34.1429 341.429H68.2857V375.571H34.1429V341.429Z" fill="#424A56"/>
<path d="M102.429 341.429H136.571V375.571H102.429V341.429Z" fill="#424A56"/>
<path d="M170.714 341.429H204.857V375.571H170.714V341.429Z" fill="#424A56"/>
<path d="M239 341.429H273.143V375.571H239V341.429Z" fill="#424A56"/>
<path d="M307.286 341.429H341.429V375.571H307.286V341.429Z" fill="#424A56"/>
<path d="M375.571 341.429H409.714V375.571H375.571V341.429Z" fill="#424A56"/>
<path d="M443.857 341.429H478V375.571H443.857V341.429Z" fill="#424A56"/>
<path d="M512.143 341.429H546.286V375.571H512.143V341.429Z" fill="#424A56"/>
<path d="M580.429 341.429H614.571V375.571H580.429V341.429Z" fill="#424A56"/>
<path d="M648.714 341.429H682.857V375.571H648.714V341.429Z" fill="#424A56"/>
<path d="M717 341.429H751.143V375.571H717V341.429Z" fill="#424A56"/>
<path d="M785.286 341.429H819.429V375.571H785.286V341.429Z" fill="#424A56"/>
<path d="M853.571 341.429H887.714V375.571H853.571V341.429Z" fill="#424A56"/>
<path d="M921.857 341.429H956V375.571H921.857V341.429Z" fill="#424A56"/>
<path d="M990.143 341.429H1024.29V375.571H990.143V341.429Z" fill="#424A56"/>
<path d="M1058.43 341.429H1092.57V375.571H1058.43V341.429Z" fill="#424A56"/>
<path d="M1126.71 341.429H1160.86V375.571H1126.71V341.429Z" fill="#424A56"/>
<path d="M1195 341.429H1229.14V375.571H1195V341.429Z" fill="#424A56"/>
<path d="M1263.29 341.429H1297.43V375.571H1263.29V341.429Z" fill="#424A56"/>
<path d="M1331.57 341.429H1365.71V375.571H1331.57V341.429Z" fill="#424A56"/>
<path d="M1399.86 341.429H1434V375.571H1399.86V341.429Z" fill="#424A56"/>
<path d="M1468.14 341.429H1502.29V375.571H1468.14V341.429Z" fill="#424A56"/>
<path d="M0 375.571H34.1429V409.714H0V375.571Z" fill="#424A56"/>
<path d="M68.2857 375.571H102.429V409.714H68.2857V375.571Z" fill="#424A56"/>
<path d="M136.571 375.571H170.714V409.714H136.571V375.571Z" fill="#424A56"/>
<path d="M204.857 375.571H239V409.714H204.857V375.571Z" fill="#424A56"/>
<path d="M273.143 375.571H307.286V409.714H273.143V375.571Z" fill="#424A56"/>
<path d="M341.429 375.571H375.571V409.714H341.429V375.571Z" fill="#424A56"/>
<path d="M409.714 375.571H443.857V409.714H409.714V375.571Z" fill="#424A56"/>
<path d="M478 375.571H512.143V409.714H478V375.571Z" fill="#424A56"/>
<path d="M546.286 375.571H580.429V409.714H546.286V375.571Z" fill="#424A56"/>
<path d="M614.571 375.571H648.714V409.714H614.571V375.571Z" fill="#424A56"/>
<path d="M682.857 375.571H717V409.714H682.857V375.571Z" fill="#424A56"/>
<path d="M751.143 375.571H785.286V409.714H751.143V375.571Z" fill="#424A56"/>
<path d="M819.429 375.571H853.571V409.714H819.429V375.571Z" fill="#424A56"/>
<path d="M887.714 375.571H921.857V409.714H887.714V375.571Z" fill="#424A56"/>
<path d="M956 375.571H990.143V409.714H956V375.571Z" fill="#424A56"/>
<path d="M1024.29 375.571H1058.43V409.714H1024.29V375.571Z" fill="#424A56"/>
<path d="M1092.57 375.571H1126.71V409.714H1092.57V375.571Z" fill="#424A56"/>
<path d="M1160.86 375.571H1195V409.714H1160.86V375.571Z" fill="#424A56"/>
<path d="M1229.14 375.571H1263.29V409.714H1229.14V375.571Z" fill="#424A56"/>
<path d="M1297.43 375.571H1331.57V409.714H1297.43V375.571Z" fill="#424A56"/>
<path d="M1365.71 375.571H1399.86V409.714H1365.71V375.571Z" fill="#424A56"/>
<path d="M1434 375.571H1468.14V409.714H1434V375.571Z" fill="#424A56"/>
<path d="M34.1429 409.714H68.2857V443.857H34.1429V409.714Z" fill="#424A56"/>
<path d="M102.429 409.714H136.571V443.857H102.429V409.714Z" fill="#424A56"/>
<path d="M170.714 409.714H204.857V443.857H170.714V409.714Z" fill="#424A56"/>
<path d="M239 409.714H273.143V443.857H239V409.714Z" fill="#424A56"/>
<path d="M307.286 409.714H341.429V443.857H307.286V409.714Z" fill="#424A56"/>
<path d="M375.571 409.714H409.714V443.857H375.571V409.714Z" fill="#424A56"/>
<path d="M443.857 409.714H478V443.857H443.857V409.714Z" fill="#424A56"/>
<path d="M512.143 409.714H546.286V443.857H512.143V409.714Z" fill="#424A56"/>
<path d="M580.429 409.714H614.571V443.857H580.429V409.714Z" fill="#424A56"/>
<path d="M648.714 409.714H682.857V443.857H648.714V409.714Z" fill="#424A56"/>
<path d="M717 409.714H751.143V443.857H717V409.714Z" fill="#424A56"/>
<path d="M785.286 409.714H819.429V443.857H785.286V409.714Z" fill="#424A56"/>
<path d="M853.571 409.714H887.714V443.857H853.571V409.714Z" fill="#424A56"/>
<path d="M921.857 409.714H956V443.857H921.857V409.714Z" fill="#424A56"/>
<path d="M990.143 409.714H1024.29V443.857H990.143V409.714Z" fill="#424A56"/>
<path d="M1058.43 409.714H1092.57V443.857H1058.43V409.714Z" fill="#424A56"/>
<path d="M1126.71 409.714H1160.86V443.857H1126.71V409.714Z" fill="#424A56"/>
<path d="M1195 409.714H1229.14V443.857H1195V409.714Z" fill="#424A56"/>
<path d="M1263.29 409.714H1297.43V443.857H1263.29V409.714Z" fill="#424A56"/>
<path d="M1331.57 409.714H1365.71V443.857H1331.57V409.714Z" fill="#424A56"/>
<path d="M1399.86 409.714H1434V443.857H1399.86V409.714Z" fill="#424A56"/>
<path d="M1468.14 409.714H1502.29V443.857H1468.14V409.714Z" fill="#424A56"/>
<path d="M0 443.857H34.1429V478H0V443.857Z" fill="#424A56"/>
<path d="M68.2857 443.857H102.429V478H68.2857V443.857Z" fill="#424A56"/>
<path d="M136.571 443.857H170.714V478H136.571V443.857Z" fill="#424A56"/>
<path d="M204.857 443.857H239V478H204.857V443.857Z" fill="#424A56"/>
<path d="M273.143 443.857H307.286V478H273.143V443.857Z" fill="#424A56"/>
<path d="M341.429 443.857H375.571V478H341.429V443.857Z" fill="#424A56"/>
<path d="M409.714 443.857H443.857V478H409.714V443.857Z" fill="#424A56"/>
<path d="M478 443.857H512.143V478H478V443.857Z" fill="#424A56"/>
<path d="M546.286 443.857H580.429V478H546.286V443.857Z" fill="#424A56"/>
<path d="M614.571 443.857H648.714V478H614.571V443.857Z" fill="#424A56"/>
<path d="M682.857 443.857H717V478H682.857V443.857Z" fill="#424A56"/>
<path d="M751.143 443.857H785.286V478H751.143V443.857Z" fill="#424A56"/>
<path d="M819.429 443.857H853.571V478H819.429V443.857Z" fill="#424A56"/>
<path d="M887.714 443.857H921.857V478H887.714V443.857Z" fill="#424A56"/>
<path d="M956 443.857H990.143V478H956V443.857Z" fill="#424A56"/>
<path d="M1024.29 443.857H1058.43V478H1024.29V443.857Z" fill="#424A56"/>
<path d="M1092.57 443.857H1126.71V478H1092.57V443.857Z" fill="#424A56"/>
<path d="M1160.86 443.857H1195V478H1160.86V443.857Z" fill="#424A56"/>
<path d="M1229.14 443.857H1263.29V478H1229.14V443.857Z" fill="#424A56"/>
<path d="M1297.43 443.857H1331.57V478H1297.43V443.857Z" fill="#424A56"/>
<path d="M1365.71 443.857H1399.86V478H1365.71V443.857Z" fill="#424A56"/>
<path d="M1434 443.857H1468.14V478H1434V443.857Z" fill="#424A56"/>
<path d="M34.1429 478H68.2857V512.143H34.1429V478Z" fill="#424A56"/>
<path d="M102.429 478H136.571V512.143H102.429V478Z" fill="#424A56"/>
<path d="M170.714 478H204.857V512.143H170.714V478Z" fill="#424A56"/>
<path d="M239 478H273.143V512.143H239V478Z" fill="#424A56"/>
<path d="M307.286 478H341.429V512.143H307.286V478Z" fill="#424A56"/>
<path d="M375.571 478H409.714V512.143H375.571V478Z" fill="#424A56"/>
<path d="M443.857 478H478V512.143H443.857V478Z" fill="#424A56"/>
<path d="M512.143 478H546.286V512.143H512.143V478Z" fill="#424A56"/>
<path d="M580.429 478H614.571V512.143H580.429V478Z" fill="#424A56"/>
<path d="M648.714 478H682.857V512.143H648.714V478Z" fill="#424A56"/>
<path d="M717 478H751.143V512.143H717V478Z" fill="#424A56"/>
<path d="M785.286 478H819.429V512.143H785.286V478Z" fill="#424A56"/>
<path d="M853.571 478H887.714V512.143H853.571V478Z" fill="#424A56"/>
<path d="M921.857 478H956V512.143H921.857V478Z" fill="#424A56"/>
<path d="M990.143 478H1024.29V512.143H990.143V478Z" fill="#424A56"/>
<path d="M1058.43 478H1092.57V512.143H1058.43V478Z" fill="#424A56"/>
<path d="M1126.71 478H1160.86V512.143H1126.71V478Z" fill="#424A56"/>
<path d="M1195 478H1229.14V512.143H1195V478Z" fill="#424A56"/>
<path d="M1263.29 478H1297.43V512.143H1263.29V478Z" fill="#424A56"/>
<path d="M1331.57 478H1365.71V512.143H1331.57V478Z" fill="#424A56"/>
<path d="M1399.86 478H1434V512.143H1399.86V478Z" fill="#424A56"/>
<path d="M1468.14 478H1502.29V512.143H1468.14V478Z" fill="#424A56"/>
<path d="M0 512.143H34.1429V546.286H0V512.143Z" fill="#424A56"/>
<path d="M68.2857 512.143H102.429V546.286H68.2857V512.143Z" fill="#424A56"/>
<path d="M136.571 512.143H170.714V546.286H136.571V512.143Z" fill="#424A56"/>
<path d="M204.857 512.143H239V546.286H204.857V512.143Z" fill="#424A56"/>
<path d="M273.143 512.143H307.286V546.286H273.143V512.143Z" fill="#424A56"/>
<path d="M341.429 512.143H375.571V546.286H341.429V512.143Z" fill="#424A56"/>
<path d="M409.714 512.143H443.857V546.286H409.714V512.143Z" fill="#424A56"/>
<path d="M478 512.143H512.143V546.286H478V512.143Z" fill="#424A56"/>
<path d="M546.286 512.143H580.429V546.286H546.286V512.143Z" fill="#424A56"/>
<path d="M614.571 512.143H648.714V546.286H614.571V512.143Z" fill="#424A56"/>
<path d="M682.857 512.143H717V546.286H682.857V512.143Z" fill="#424A56"/>
<path d="M751.143 512.143H785.286V546.286H751.143V512.143Z" fill="#424A56"/>
<path d="M819.429 512.143H853.571V546.286H819.429V512.143Z" fill="#424A56"/>
<path d="M887.714 512.143H921.857V546.286H887.714V512.143Z" fill="#424A56"/>
<path d="M956 512.143H990.143V546.286H956V512.143Z" fill="#424A56"/>
<path d="M1024.29 512.143H1058.43V546.286H1024.29V512.143Z" fill="#424A56"/>
<path d="M1092.57 512.143H1126.71V546.286H1092.57V512.143Z" fill="#424A56"/>
<path d="M1160.86 512.143H1195V546.286H1160.86V512.143Z" fill="#424A56"/>
<path d="M1229.14 512.143H1263.29V546.286H1229.14V512.143Z" fill="#424A56"/>
<path d="M1297.43 512.143H1331.57V546.286H1297.43V512.143Z" fill="#424A56"/>
<path d="M1365.71 512.143H1399.86V546.286H1365.71V512.143Z" fill="#424A56"/>
<path d="M1434 512.143H1468.14V546.286H1434V512.143Z" fill="#424A56"/>
<path d="M34.1429 546.286H68.2857V580.429H34.1429V546.286Z" fill="#424A56"/>
<path d="M102.429 546.286H136.571V580.429H102.429V546.286Z" fill="#424A56"/>
<path d="M170.714 546.286H204.857V580.429H170.714V546.286Z" fill="#424A56"/>
<path d="M239 546.286H273.143V580.429H239V546.286Z" fill="#424A56"/>
<path d="M307.286 546.286H341.429V580.429H307.286V546.286Z" fill="#424A56"/>
<path d="M375.571 546.286H409.714V580.429H375.571V546.286Z" fill="#424A56"/>
<path d="M443.857 546.286H478V580.429H443.857V546.286Z" fill="#424A56"/>
<path d="M512.143 546.286H546.286V580.429H512.143V546.286Z" fill="#424A56"/>
<path d="M580.429 546.286H614.571V580.429H580.429V546.286Z" fill="#424A56"/>
<path d="M648.714 546.286H682.857V580.429H648.714V546.286Z" fill="#424A56"/>
<path d="M717 546.286H751.143V580.429H717V546.286Z" fill="#424A56"/>
<path d="M785.286 546.286H819.429V580.429H785.286V546.286Z" fill="#424A56"/>
<path d="M853.571 546.286H887.714V580.429H853.571V546.286Z" fill="#424A56"/>
<path d="M921.857 546.286H956V580.429H921.857V546.286Z" fill="#424A56"/>
<path d="M990.143 546.286H1024.29V580.429H990.143V546.286Z" fill="#424A56"/>
<path d="M1058.43 546.286H1092.57V580.429H1058.43V546.286Z" fill="#424A56"/>
<path d="M1126.71 546.286H1160.86V580.429H1126.71V546.286Z" fill="#424A56"/>
<path d="M1195 546.286H1229.14V580.429H1195V546.286Z" fill="#424A56"/>
<path d="M1263.29 546.286H1297.43V580.429H1263.29V546.286Z" fill="#424A56"/>
<path d="M1331.57 546.286H1365.71V580.429H1331.57V546.286Z" fill="#424A56"/>
<path d="M1399.86 546.286H1434V580.429H1399.86V546.286Z" fill="#424A56"/>
<path d="M1468.14 546.286H1502.29V580.429H1468.14V546.286Z" fill="#424A56"/>
<path d="M0 580.429H34.1429V614.571H0V580.429Z" fill="#424A56"/>
<path d="M68.2857 580.429H102.429V614.571H68.2857V580.429Z" fill="#424A56"/>
<path d="M136.571 580.429H170.714V614.571H136.571V580.429Z" fill="#424A56"/>
<path d="M204.857 580.429H239V614.571H204.857V580.429Z" fill="#424A56"/>
<path d="M273.143 580.429H307.286V614.571H273.143V580.429Z" fill="#424A56"/>
<path d="M341.429 580.429H375.571V614.571H341.429V580.429Z" fill="#424A56"/>
<path d="M409.714 580.429H443.857V614.571H409.714V580.429Z" fill="#424A56"/>
<path d="M478 580.429H512.143V614.571H478V580.429Z" fill="#424A56"/>
<path d="M546.286 580.429H580.429V614.571H546.286V580.429Z" fill="#424A56"/>
<path d="M614.571 580.429H648.714V614.571H614.571V580.429Z" fill="#424A56"/>
<path d="M682.857 580.429H717V614.571H682.857V580.429Z" fill="#424A56"/>
<path d="M751.143 580.429H785.286V614.571H751.143V580.429Z" fill="#424A56"/>
<path d="M819.429 580.429H853.571V614.571H819.429V580.429Z" fill="#424A56"/>
<path d="M887.714 580.429H921.857V614.571H887.714V580.429Z" fill="#424A56"/>
<path d="M956 580.429H990.143V614.571H956V580.429Z" fill="#424A56"/>
<path d="M1024.29 580.429H1058.43V614.571H1024.29V580.429Z" fill="#424A56"/>
<path d="M1092.57 580.429H1126.71V614.571H1092.57V580.429Z" fill="#424A56"/>
<path d="M1160.86 580.429H1195V614.571H1160.86V580.429Z" fill="#424A56"/>
<path d="M1229.14 580.429H1263.29V614.571H1229.14V580.429Z" fill="#424A56"/>
<path d="M1297.43 580.429H1331.57V614.571H1297.43V580.429Z" fill="#424A56"/>
<path d="M1365.71 580.429H1399.86V614.571H1365.71V580.429Z" fill="#424A56"/>
<path d="M1434 580.429H1468.14V614.571H1434V580.429Z" fill="#424A56"/>
<path d="M34.1429 614.571H68.2857V648.714H34.1429V614.571Z" fill="#424A56"/>
<path d="M102.429 614.571H136.571V648.714H102.429V614.571Z" fill="#424A56"/>
<path d="M170.714 614.571H204.857V648.714H170.714V614.571Z" fill="#424A56"/>
<path d="M239 614.571H273.143V648.714H239V614.571Z" fill="#424A56"/>
<path d="M307.286 614.571H341.429V648.714H307.286V614.571Z" fill="#424A56"/>
<path d="M375.571 614.571H409.714V648.714H375.571V614.571Z" fill="#424A56"/>
<path d="M443.857 614.571H478V648.714H443.857V614.571Z" fill="#424A56"/>
<path d="M512.143 614.571H546.286V648.714H512.143V614.571Z" fill="#424A56"/>
<path d="M580.429 614.571H614.571V648.714H580.429V614.571Z" fill="#424A56"/>
<path d="M648.714 614.571H682.857V648.714H648.714V614.571Z" fill="#424A56"/>
<path d="M717 614.571H751.143V648.714H717V614.571Z" fill="#424A56"/>
<path d="M785.286 614.571H819.429V648.714H785.286V614.571Z" fill="#424A56"/>
<path d="M853.571 614.571H887.714V648.714H853.571V614.571Z" fill="#424A56"/>
<path d="M921.857 614.571H956V648.714H921.857V614.571Z" fill="#424A56"/>
<path d="M990.143 614.571H1024.29V648.714H990.143V614.571Z" fill="#424A56"/>
<path d="M1058.43 614.571H1092.57V648.714H1058.43V614.571Z" fill="#424A56"/>
<path d="M1126.71 614.571H1160.86V648.714H1126.71V614.571Z" fill="#424A56"/>
<path d="M1195 614.571H1229.14V648.714H1195V614.571Z" fill="#424A56"/>
<path d="M1263.29 614.571H1297.43V648.714H1263.29V614.571Z" fill="#424A56"/>
<path d="M1331.57 614.571H1365.71V648.714H1331.57V614.571Z" fill="#424A56"/>
<path d="M1399.86 614.571H1434V648.714H1399.86V614.571Z" fill="#424A56"/>
<path d="M1468.14 614.571H1502.29V648.714H1468.14V614.571Z" fill="#424A56"/>
<path d="M0 648.714H34.1429V682.857H0V648.714Z" fill="#424A56"/>
<path d="M68.2857 648.714H102.429V682.857H68.2857V648.714Z" fill="#424A56"/>
<path d="M136.571 648.714H170.714V682.857H136.571V648.714Z" fill="#424A56"/>
<path d="M204.857 648.714H239V682.857H204.857V648.714Z" fill="#424A56"/>
<path d="M273.143 648.714H307.286V682.857H273.143V648.714Z" fill="#424A56"/>
<path d="M341.429 648.714H375.571V682.857H341.429V648.714Z" fill="#424A56"/>
<path d="M409.714 648.714H443.857V682.857H409.714V648.714Z" fill="#424A56"/>
<path d="M478 648.714H512.143V682.857H478V648.714Z" fill="#424A56"/>
<path d="M546.286 648.714H580.429V682.857H546.286V648.714Z" fill="#424A56"/>
<path d="M614.571 648.714H648.714V682.857H614.571V648.714Z" fill="#424A56"/>
<path d="M682.857 648.714H717V682.857H682.857V648.714Z" fill="#424A56"/>
<path d="M751.143 648.714H785.286V682.857H751.143V648.714Z" fill="#424A56"/>
<path d="M819.429 648.714H853.571V682.857H819.429V648.714Z" fill="#424A56"/>
<path d="M887.714 648.714H921.857V682.857H887.714V648.714Z" fill="#424A56"/>
<path d="M956 648.714H990.143V682.857H956V648.714Z" fill="#424A56"/>
<path d="M1024.29 648.714H1058.43V682.857H1024.29V648.714Z" fill="#424A56"/>
<path d="M1092.57 648.714H1126.71V682.857H1092.57V648.714Z" fill="#424A56"/>
<path d="M1160.86 648.714H1195V682.857H1160.86V648.714Z" fill="#424A56"/>
<path d="M1229.14 648.714H1263.29V682.857H1229.14V648.714Z" fill="#424A56"/>
<path d="M1297.43 648.714H1331.57V682.857H1297.43V648.714Z" fill="#424A56"/>
<path d="M1365.71 648.714H1399.86V682.857H1365.71V648.714Z" fill="#424A56"/>
<path d="M1434 648.714H1468.14V682.857H1434V648.714Z" fill="#424A56"/>
<path d="M34.1429 682.857H68.2857V717H34.1429V682.857Z" fill="#424A56"/>
<path d="M102.429 682.857H136.571V717H102.429V682.857Z" fill="#424A56"/>
<path d="M170.714 682.857H204.857V717H170.714V682.857Z" fill="#424A56"/>
<path d="M239 682.857H273.143V717H239V682.857Z" fill="#424A56"/>
<path d="M307.286 682.857H341.429V717H307.286V682.857Z" fill="#424A56"/>
<path d="M375.571 682.857H409.714V717H375.571V682.857Z" fill="#424A56"/>
<path d="M443.857 682.857H478V717H443.857V682.857Z" fill="#424A56"/>
<path d="M512.143 682.857H546.286V717H512.143V682.857Z" fill="#424A56"/>
<path d="M580.429 682.857H614.571V717H580.429V682.857Z" fill="#424A56"/>
<path d="M648.714 682.857H682.857V717H648.714V682.857Z" fill="#424A56"/>
<path d="M717 682.857H751.143V717H717V682.857Z" fill="#424A56"/>
<path d="M785.286 682.857H819.429V717H785.286V682.857Z" fill="#424A56"/>
<path d="M853.571 682.857H887.714V717H853.571V682.857Z" fill="#424A56"/>
<path d="M921.857 682.857H956V717H921.857V682.857Z" fill="#424A56"/>
<path d="M990.143 682.857H1024.29V717H990.143V682.857Z" fill="#424A56"/>
<path d="M1058.43 682.857H1092.57V717H1058.43V682.857Z" fill="#424A56"/>
<path d="M1126.71 682.857H1160.86V717H1126.71V682.857Z" fill="#424A56"/>
<path d="M1195 682.857H1229.14V717H1195V682.857Z" fill="#424A56"/>
<path d="M1263.29 682.857H1297.43V717H1263.29V682.857Z" fill="#424A56"/>
<path d="M1331.57 682.857H1365.71V717H1331.57V682.857Z" fill="#424A56"/>
<path d="M1399.86 682.857H1434V717H1399.86V682.857Z" fill="#424A56"/>
<path d="M1468.14 682.857H1502.29V717H1468.14V682.857Z" fill="#424A56"/>
<path d="M0 717H34.1429V751.143H0V717Z" fill="#424A56"/>
<path d="M68.2857 717H102.429V751.143H68.2857V717Z" fill="#424A56"/>
<path d="M136.571 717H170.714V751.143H136.571V717Z" fill="#424A56"/>
<path d="M204.857 717H239V751.143H204.857V717Z" fill="#424A56"/>
<path d="M273.143 717H307.286V751.143H273.143V717Z" fill="#424A56"/>
<path d="M341.429 717H375.571V751.143H341.429V717Z" fill="#424A56"/>
<path d="M409.714 717H443.857V751.143H409.714V717Z" fill="#424A56"/>
<path d="M478 717H512.143V751.143H478V717Z" fill="#424A56"/>
<path d="M546.286 717H580.429V751.143H546.286V717Z" fill="#424A56"/>
<path d="M614.571 717H648.714V751.143H614.571V717Z" fill="#424A56"/>
<path d="M682.857 717H717V751.143H682.857V717Z" fill="#424A56"/>
<path d="M751.143 717H785.286V751.143H751.143V717Z" fill="#424A56"/>
<path d="M819.429 717H853.571V751.143H819.429V717Z" fill="#424A56"/>
<path d="M887.714 717H921.857V751.143H887.714V717Z" fill="#424A56"/>
<path d="M956 717H990.143V751.143H956V717Z" fill="#424A56"/>
<path d="M1024.29 717H1058.43V751.143H1024.29V717Z" fill="#424A56"/>
<path d="M1092.57 717H1126.71V751.143H1092.57V717Z" fill="#424A56"/>
<path d="M1160.86 717H1195V751.143H1160.86V717Z" fill="#424A56"/>
<path d="M1229.14 717H1263.29V751.143H1229.14V717Z" fill="#424A56"/>
<path d="M1297.43 717H1331.57V751.143H1297.43V717Z" fill="#424A56"/>
<path d="M1365.71 717H1399.86V751.143H1365.71V717Z" fill="#424A56"/>
<path d="M1434 717H1468.14V751.143H1434V717Z" fill="#424A56"/>
<path d="M34.1429 751.143H68.2857V785.286H34.1429V751.143Z" fill="#424A56"/>
<path d="M102.429 751.143H136.571V785.286H102.429V751.143Z" fill="#424A56"/>
<path d="M170.714 751.143H204.857V785.286H170.714V751.143Z" fill="#424A56"/>
<path d="M239 751.143H273.143V785.286H239V751.143Z" fill="#424A56"/>
<path d="M307.286 751.143H341.429V785.286H307.286V751.143Z" fill="#424A56"/>
<path d="M375.571 751.143H409.714V785.286H375.571V751.143Z" fill="#424A56"/>
<path d="M443.857 751.143H478V785.286H443.857V751.143Z" fill="#424A56"/>
<path d="M512.143 751.143H546.286V785.286H512.143V751.143Z" fill="#424A56"/>
<path d="M580.429 751.143H614.571V785.286H580.429V751.143Z" fill="#424A56"/>
<path d="M648.714 751.143H682.857V785.286H648.714V751.143Z" fill="#424A56"/>
<path d="M717 751.143H751.143V785.286H717V751.143Z" fill="#424A56"/>
<path d="M785.286 751.143H819.429V785.286H785.286V751.143Z" fill="#424A56"/>
<path d="M853.571 751.143H887.714V785.286H853.571V751.143Z" fill="#424A56"/>
<path d="M921.857 751.143H956V785.286H921.857V751.143Z" fill="#424A56"/>
<path d="M990.143 751.143H1024.29V785.286H990.143V751.143Z" fill="#424A56"/>
<path d="M1058.43 751.143H1092.57V785.286H1058.43V751.143Z" fill="#424A56"/>
<path d="M1126.71 751.143H1160.86V785.286H1126.71V751.143Z" fill="#424A56"/>
<path d="M1195 751.143H1229.14V785.286H1195V751.143Z" fill="#424A56"/>
<path d="M1263.29 751.143H1297.43V785.286H1263.29V751.143Z" fill="#424A56"/>
<path d="M1331.57 751.143H1365.71V785.286H1331.57V751.143Z" fill="#424A56"/>
<path d="M1399.86 751.143H1434V785.286H1399.86V751.143Z" fill="#424A56"/>
<path d="M1468.14 751.143H1502.29V785.286H1468.14V751.143Z" fill="#424A56"/>
<path d="M0 785.286H34.1429V819.429H0V785.286Z" fill="#424A56"/>
<path d="M68.2857 785.286H102.429V819.429H68.2857V785.286Z" fill="#424A56"/>
<path d="M136.571 785.286H170.714V819.429H136.571V785.286Z" fill="#424A56"/>
<path d="M204.857 785.286H239V819.429H204.857V785.286Z" fill="#424A56"/>
<path d="M273.143 785.286H307.286V819.429H273.143V785.286Z" fill="#424A56"/>
<path d="M341.429 785.286H375.571V819.429H341.429V785.286Z" fill="#424A56"/>
<path d="M409.714 785.286H443.857V819.429H409.714V785.286Z" fill="#424A56"/>
<path d="M478 785.286H512.143V819.429H478V785.286Z" fill="#424A56"/>
<path d="M546.286 785.286H580.429V819.429H546.286V785.286Z" fill="#424A56"/>
<path d="M614.571 785.286H648.714V819.429H614.571V785.286Z" fill="#424A56"/>
<path d="M682.857 785.286H717V819.429H682.857V785.286Z" fill="#424A56"/>
<path d="M751.143 785.286H785.286V819.429H751.143V785.286Z" fill="#424A56"/>
<path d="M819.429 785.286H853.571V819.429H819.429V785.286Z" fill="#424A56"/>
<path d="M887.714 785.286H921.857V819.429H887.714V785.286Z" fill="#424A56"/>
<path d="M956 785.286H990.143V819.429H956V785.286Z" fill="#424A56"/>
<path d="M1024.29 785.286H1058.43V819.429H1024.29V785.286Z" fill="#424A56"/>
<path d="M1092.57 785.286H1126.71V819.429H1092.57V785.286Z" fill="#424A56"/>
<path d="M1160.86 785.286H1195V819.429H1160.86V785.286Z" fill="#424A56"/>
<path d="M1229.14 785.286H1263.29V819.429H1229.14V785.286Z" fill="#424A56"/>
<path d="M1297.43 785.286H1331.57V819.429H1297.43V785.286Z" fill="#424A56"/>
<path d="M1365.71 785.286H1399.86V819.429H1365.71V785.286Z" fill="#424A56"/>
<path d="M1434 785.286H1468.14V819.429H1434V785.286Z" fill="#424A56"/>
<path d="M34.1429 819.429H68.2857V853.571H34.1429V819.429Z" fill="#424A56"/>
<path d="M102.429 819.429H136.571V853.571H102.429V819.429Z" fill="#424A56"/>
<path d="M170.714 819.429H204.857V853.571H170.714V819.429Z" fill="#424A56"/>
<path d="M239 819.429H273.143V853.571H239V819.429Z" fill="#424A56"/>
<path d="M307.286 819.429H341.429V853.571H307.286V819.429Z" fill="#424A56"/>
<path d="M375.571 819.429H409.714V853.571H375.571V819.429Z" fill="#424A56"/>
<path d="M443.857 819.429H478V853.571H443.857V819.429Z" fill="#424A56"/>
<path d="M512.143 819.429H546.286V853.571H512.143V819.429Z" fill="#424A56"/>
<path d="M580.429 819.429H614.571V853.571H580.429V819.429Z" fill="#424A56"/>
<path d="M648.714 819.429H682.857V853.571H648.714V819.429Z" fill="#424A56"/>
<path d="M717 819.429H751.143V853.571H717V819.429Z" fill="#424A56"/>
<path d="M785.286 819.429H819.429V853.571H785.286V819.429Z" fill="#424A56"/>
<path d="M853.571 819.429H887.714V853.571H853.571V819.429Z" fill="#424A56"/>
<path d="M921.857 819.429H956V853.571H921.857V819.429Z" fill="#424A56"/>
<path d="M990.143 819.429H1024.29V853.571H990.143V819.429Z" fill="#424A56"/>
<path d="M1058.43 819.429H1092.57V853.571H1058.43V819.429Z" fill="#424A56"/>
<path d="M1126.71 819.429H1160.86V853.571H1126.71V819.429Z" fill="#424A56"/>
<path d="M1195 819.429H1229.14V853.571H1195V819.429Z" fill="#424A56"/>
<path d="M1263.29 819.429H1297.43V853.571H1263.29V819.429Z" fill="#424A56"/>
<path d="M1331.57 819.429H1365.71V853.571H1331.57V819.429Z" fill="#424A56"/>
<path d="M1399.86 819.429H1434V853.571H1399.86V819.429Z" fill="#424A56"/>
<path d="M1468.14 819.429H1502.29V853.571H1468.14V819.429Z" fill="#424A56"/>
<path d="M0 853.571H34.1429V887.714H0V853.571Z" fill="#424A56"/>
<path d="M68.2857 853.571H102.429V887.714H68.2857V853.571Z" fill="#424A56"/>
<path d="M136.571 853.571H170.714V887.714H136.571V853.571Z" fill="#424A56"/>
<path d="M204.857 853.571H239V887.714H204.857V853.571Z" fill="#424A56"/>
<path d="M273.143 853.571H307.286V887.714H273.143V853.571Z" fill="#424A56"/>
<path d="M341.429 853.571H375.571V887.714H341.429V853.571Z" fill="#424A56"/>
<path d="M409.714 853.571H443.857V887.714H409.714V853.571Z" fill="#424A56"/>
<path d="M478 853.571H512.143V887.714H478V853.571Z" fill="#424A56"/>
<path d="M546.286 853.571H580.429V887.714H546.286V853.571Z" fill="#424A56"/>
<path d="M614.571 853.571H648.714V887.714H614.571V853.571Z" fill="#424A56"/>
<path d="M682.857 853.571H717V887.714H682.857V853.571Z" fill="#424A56"/>
<path d="M751.143 853.571H785.286V887.714H751.143V853.571Z" fill="#424A56"/>
<path d="M819.429 853.571H853.571V887.714H819.429V853.571Z" fill="#424A56"/>
<path d="M887.714 853.571H921.857V887.714H887.714V853.571Z" fill="#424A56"/>
<path d="M956 853.571H990.143V887.714H956V853.571Z" fill="#424A56"/>
<path d="M1024.29 853.571H1058.43V887.714H1024.29V853.571Z" fill="#424A56"/>
<path d="M1092.57 853.571H1126.71V887.714H1092.57V853.571Z" fill="#424A56"/>
<path d="M1160.86 853.571H1195V887.714H1160.86V853.571Z" fill="#424A56"/>
<path d="M1229.14 853.571H1263.29V887.714H1229.14V853.571Z" fill="#424A56"/>
<path d="M1297.43 853.571H1331.57V887.714H1297.43V853.571Z" fill="#424A56"/>
<path d="M1365.71 853.571H1399.86V887.714H1365.71V853.571Z" fill="#424A56"/>
<path d="M1434 853.571H1468.14V887.714H1434V853.571Z" fill="#424A56"/>
<path d="M34.1429 887.714H68.2857V921.857H34.1429V887.714Z" fill="#424A56"/>
<path d="M102.429 887.714H136.571V921.857H102.429V887.714Z" fill="#424A56"/>
<path d="M170.714 887.714H204.857V921.857H170.714V887.714Z" fill="#424A56"/>
<path d="M239 887.714H273.143V921.857H239V887.714Z" fill="#424A56"/>
<path d="M307.286 887.714H341.429V921.857H307.286V887.714Z" fill="#424A56"/>
<path d="M375.571 887.714H409.714V921.857H375.571V887.714Z" fill="#424A56"/>
<path d="M443.857 887.714H478V921.857H443.857V887.714Z" fill="#424A56"/>
<path d="M512.143 887.714H546.286V921.857H512.143V887.714Z" fill="#424A56"/>
<path d="M580.429 887.714H614.571V921.857H580.429V887.714Z" fill="#424A56"/>
<path d="M648.714 887.714H682.857V921.857H648.714V887.714Z" fill="#424A56"/>
<path d="M717 887.714H751.143V921.857H717V887.714Z" fill="#424A56"/>
<path d="M785.286 887.714H819.429V921.857H785.286V887.714Z" fill="#424A56"/>
<path d="M853.571 887.714H887.714V921.857H853.571V887.714Z" fill="#424A56"/>
<path d="M921.857 887.714H956V921.857H921.857V887.714Z" fill="#424A56"/>
<path d="M990.143 887.714H1024.29V921.857H990.143V887.714Z" fill="#424A56"/>
<path d="M1058.43 887.714H1092.57V921.857H1058.43V887.714Z" fill="#424A56"/>
<path d="M1126.71 887.714H1160.86V921.857H1126.71V887.714Z" fill="#424A56"/>
<path d="M1195 887.714H1229.14V921.857H1195V887.714Z" fill="#424A56"/>
<path d="M1263.29 887.714H1297.43V921.857H1263.29V887.714Z" fill="#424A56"/>
<path d="M1331.57 887.714H1365.71V921.857H1331.57V887.714Z" fill="#424A56"/>
<path d="M1399.86 887.714H1434V921.857H1399.86V887.714Z" fill="#424A56"/>
<path d="M1468.14 887.714H1502.29V921.857H1468.14V887.714Z" fill="#424A56"/>
<path d="M0 921.857H34.1429V956H0V921.857Z" fill="#424A56"/>
<path d="M68.2857 921.857H102.429V956H68.2857V921.857Z" fill="#424A56"/>
<path d="M136.571 921.857H170.714V956H136.571V921.857Z" fill="#424A56"/>
<path d="M204.857 921.857H239V956H204.857V921.857Z" fill="#424A56"/>
<path d="M273.143 921.857H307.286V956H273.143V921.857Z" fill="#424A56"/>
<path d="M341.429 921.857H375.571V956H341.429V921.857Z" fill="#424A56"/>
<path d="M409.714 921.857H443.857V956H409.714V921.857Z" fill="#424A56"/>
<path d="M478 921.857H512.143V956H478V921.857Z" fill="#424A56"/>
<path d="M546.286 921.857H580.429V956H546.286V921.857Z" fill="#424A56"/>
<path d="M614.571 921.857H648.714V956H614.571V921.857Z" fill="#424A56"/>
<path d="M682.857 921.857H717V956H682.857V921.857Z" fill="#424A56"/>
<path d="M751.143 921.857H785.286V956H751.143V921.857Z" fill="#424A56"/>
<path d="M819.429 921.857H853.571V956H819.429V921.857Z" fill="#424A56"/>
<path d="M887.714 921.857H921.857V956H887.714V921.857Z" fill="#424A56"/>
<path d="M956 921.857H990.143V956H956V921.857Z" fill="#424A56"/>
<path d="M1024.29 921.857H1058.43V956H1024.29V921.857Z" fill="#424A56"/>
<path d="M1092.57 921.857H1126.71V956H1092.57V921.857Z" fill="#424A56"/>
<path d="M1160.86 921.857H1195V956H1160.86V921.857Z" fill="#424A56"/>
<path d="M1229.14 921.857H1263.29V956H1229.14V921.857Z" fill="#424A56"/>
<path d="M1297.43 921.857H1331.57V956H1297.43V921.857Z" fill="#424A56"/>
<path d="M1365.71 921.857H1399.86V956H1365.71V921.857Z" fill="#424A56"/>
<path d="M1434 921.857H1468.14V956H1434V921.857Z" fill="#424A56"/>
<path d="M34.1429 956H68.2857V990.143H34.1429V956Z" fill="#424A56"/>
<path d="M102.429 956H136.571V990.143H102.429V956Z" fill="#424A56"/>
<path d="M170.714 956H204.857V990.143H170.714V956Z" fill="#424A56"/>
<path d="M239 956H273.143V990.143H239V956Z" fill="#424A56"/>
<path d="M307.286 956H341.429V990.143H307.286V956Z" fill="#424A56"/>
<path d="M375.571 956H409.714V990.143H375.571V956Z" fill="#424A56"/>
<path d="M443.857 956H478V990.143H443.857V956Z" fill="#424A56"/>
<path d="M512.143 956H546.286V990.143H512.143V956Z" fill="#424A56"/>
<path d="M580.429 956H614.571V990.143H580.429V956Z" fill="#424A56"/>
<path d="M648.714 956H682.857V990.143H648.714V956Z" fill="#424A56"/>
<path d="M717 956H751.143V990.143H717V956Z" fill="#424A56"/>
<path d="M785.286 956H819.429V990.143H785.286V956Z" fill="#424A56"/>
<path d="M853.571 956H887.714V990.143H853.571V956Z" fill="#424A56"/>
<path d="M921.857 956H956V990.143H921.857V956Z" fill="#424A56"/>
<path d="M990.143 956H1024.29V990.143H990.143V956Z" fill="#424A56"/>
<path d="M1058.43 956H1092.57V990.143H1058.43V956Z" fill="#424A56"/>
<path d="M1126.71 956H1160.86V990.143H1126.71V956Z" fill="#424A56"/>
<path d="M1195 956H1229.14V990.143H1195V956Z" fill="#424A56"/>
<path d="M1263.29 956H1297.43V990.143H1263.29V956Z" fill="#424A56"/>
<path d="M1331.57 956H1365.71V990.143H1331.57V956Z" fill="#424A56"/>
<path d="M1399.86 956H1434V990.143H1399.86V956Z" fill="#424A56"/>
<path d="M1468.14 956H1502.29V990.143H1468.14V956Z" fill="#424A56"/>
<path d="M0 990.143H34.1429V1024.29H0V990.143Z" fill="#424A56"/>
<path d="M68.2857 990.143H102.429V1024.29H68.2857V990.143Z" fill="#424A56"/>
<path d="M136.571 990.143H170.714V1024.29H136.571V990.143Z" fill="#424A56"/>
<path d="M204.857 990.143H239V1024.29H204.857V990.143Z" fill="#424A56"/>
<path d="M273.143 990.143H307.286V1024.29H273.143V990.143Z" fill="#424A56"/>
<path d="M341.429 990.143H375.571V1024.29H341.429V990.143Z" fill="#424A56"/>
<path d="M409.714 990.143H443.857V1024.29H409.714V990.143Z" fill="#424A56"/>
<path d="M478 990.143H512.143V1024.29H478V990.143Z" fill="#424A56"/>
<path d="M546.286 990.143H580.429V1024.29H546.286V990.143Z" fill="#424A56"/>
<path d="M614.571 990.143H648.714V1024.29H614.571V990.143Z" fill="#424A56"/>
<path d="M682.857 990.143H717V1024.29H682.857V990.143Z" fill="#424A56"/>
<path d="M751.143 990.143H785.286V1024.29H751.143V990.143Z" fill="#424A56"/>
<path d="M819.429 990.143H853.571V1024.29H819.429V990.143Z" fill="#424A56"/>
<path d="M887.714 990.143H921.857V1024.29H887.714V990.143Z" fill="#424A56"/>
<path d="M956 990.143H990.143V1024.29H956V990.143Z" fill="#424A56"/>
<path d="M1024.29 990.143H1058.43V1024.29H1024.29V990.143Z" fill="#424A56"/>
<path d="M1092.57 990.143H1126.71V1024.29H1092.57V990.143Z" fill="#424A56"/>
<path d="M1160.86 990.143H1195V1024.29H1160.86V990.143Z" fill="#424A56"/>
<path d="M1229.14 990.143H1263.29V1024.29H1229.14V990.143Z" fill="#424A56"/>
<path d="M1297.43 990.143H1331.57V1024.29H1297.43V990.143Z" fill="#424A56"/>
<path d="M1365.71 990.143H1399.86V1024.29H1365.71V990.143Z" fill="#424A56"/>
<path d="M1434 990.143H1468.14V1024.29H1434V990.143Z" fill="#424A56"/>
<path d="M34.1429 1024.29H68.2857V1058.43H34.1429V1024.29Z" fill="#424A56"/>
<path d="M102.429 1024.29H136.571V1058.43H102.429V1024.29Z" fill="#424A56"/>
<path d="M170.714 1024.29H204.857V1058.43H170.714V1024.29Z" fill="#424A56"/>
<path d="M239 1024.29H273.143V1058.43H239V1024.29Z" fill="#424A56"/>
<path d="M307.286 1024.29H341.429V1058.43H307.286V1024.29Z" fill="#424A56"/>
<path d="M375.571 1024.29H409.714V1058.43H375.571V1024.29Z" fill="#424A56"/>
<path d="M443.857 1024.29H478V1058.43H443.857V1024.29Z" fill="#424A56"/>
<path d="M512.143 1024.29H546.286V1058.43H512.143V1024.29Z" fill="#424A56"/>
<path d="M580.429 1024.29H614.571V1058.43H580.429V1024.29Z" fill="#424A56"/>
<path d="M648.714 1024.29H682.857V1058.43H648.714V1024.29Z" fill="#424A56"/>
<path d="M717 1024.29H751.143V1058.43H717V1024.29Z" fill="#424A56"/>
<path d="M785.286 1024.29H819.429V1058.43H785.286V1024.29Z" fill="#424A56"/>
<path d="M853.571 1024.29H887.714V1058.43H853.571V1024.29Z" fill="#424A56"/>
<path d="M921.857 1024.29H956V1058.43H921.857V1024.29Z" fill="#424A56"/>
<path d="M990.143 1024.29H1024.29V1058.43H990.143V1024.29Z" fill="#424A56"/>
<path d="M1058.43 1024.29H1092.57V1058.43H1058.43V1024.29Z" fill="#424A56"/>
<path d="M1126.71 1024.29H1160.86V1058.43H1126.71V1024.29Z" fill="#424A56"/>
<path d="M1195 1024.29H1229.14V1058.43H1195V1024.29Z" fill="#424A56"/>
<path d="M1263.29 1024.29H1297.43V1058.43H1263.29V1024.29Z" fill="#424A56"/>
<path d="M1331.57 1024.29H1365.71V1058.43H1331.57V1024.29Z" fill="#424A56"/>
<path d="M1399.86 1024.29H1434V1058.43H1399.86V1024.29Z" fill="#424A56"/>
<path d="M1468.14 1024.29H1502.29V1058.43H1468.14V1024.29Z" fill="#424A56"/>
<path d="M0 1058.43H34.1429V1092.57H0V1058.43Z" fill="#424A56"/>
<path d="M68.2857 1058.43H102.429V1092.57H68.2857V1058.43Z" fill="#424A56"/>
<path d="M136.571 1058.43H170.714V1092.57H136.571V1058.43Z" fill="#424A56"/>
<path d="M204.857 1058.43H239V1092.57H204.857V1058.43Z" fill="#424A56"/>
<path d="M273.143 1058.43H307.286V1092.57H273.143V1058.43Z" fill="#424A56"/>
<path d="M341.429 1058.43H375.571V1092.57H341.429V1058.43Z" fill="#424A56"/>
<path d="M409.714 1058.43H443.857V1092.57H409.714V1058.43Z" fill="#424A56"/>
<path d="M478 1058.43H512.143V1092.57H478V1058.43Z" fill="#424A56"/>
<path d="M546.286 1058.43H580.429V1092.57H546.286V1058.43Z" fill="#424A56"/>
<path d="M614.571 1058.43H648.714V1092.57H614.571V1058.43Z" fill="#424A56"/>
<path d="M682.857 1058.43H717V1092.57H682.857V1058.43Z" fill="#424A56"/>
<path d="M751.143 1058.43H785.286V1092.57H751.143V1058.43Z" fill="#424A56"/>
<path d="M819.429 1058.43H853.571V1092.57H819.429V1058.43Z" fill="#424A56"/>
<path d="M887.714 1058.43H921.857V1092.57H887.714V1058.43Z" fill="#424A56"/>
<path d="M956 1058.43H990.143V1092.57H956V1058.43Z" fill="#424A56"/>
<path d="M1024.29 1058.43H1058.43V1092.57H1024.29V1058.43Z" fill="#424A56"/>
<path d="M1092.57 1058.43H1126.71V1092.57H1092.57V1058.43Z" fill="#424A56"/>
<path d="M1160.86 1058.43H1195V1092.57H1160.86V1058.43Z" fill="#424A56"/>
<path d="M1229.14 1058.43H1263.29V1092.57H1229.14V1058.43Z" fill="#424A56"/>
<path d="M1297.43 1058.43H1331.57V1092.57H1297.43V1058.43Z" fill="#424A56"/>
<path d="M1365.71 1058.43H1399.86V1092.57H1365.71V1058.43Z" fill="#424A56"/>
<path d="M1434 1058.43H1468.14V1092.57H1434V1058.43Z" fill="#424A56"/>
<path d="M34.1429 1092.57H68.2857V1126.71H34.1429V1092.57Z" fill="#424A56"/>
<path d="M102.429 1092.57H136.571V1126.71H102.429V1092.57Z" fill="#424A56"/>
<path d="M170.714 1092.57H204.857V1126.71H170.714V1092.57Z" fill="#424A56"/>
<path d="M239 1092.57H273.143V1126.71H239V1092.57Z" fill="#424A56"/>
<path d="M307.286 1092.57H341.429V1126.71H307.286V1092.57Z" fill="#424A56"/>
<path d="M375.571 1092.57H409.714V1126.71H375.571V1092.57Z" fill="#424A56"/>
<path d="M443.857 1092.57H478V1126.71H443.857V1092.57Z" fill="#424A56"/>
<path d="M512.143 1092.57H546.286V1126.71H512.143V1092.57Z" fill="#424A56"/>
<path d="M580.429 1092.57H614.571V1126.71H580.429V1092.57Z" fill="#424A56"/>
<path d="M648.714 1092.57H682.857V1126.71H648.714V1092.57Z" fill="#424A56"/>
<path d="M717 1092.57H751.143V1126.71H717V1092.57Z" fill="#424A56"/>
<path d="M785.286 1092.57H819.429V1126.71H785.286V1092.57Z" fill="#424A56"/>
<path d="M853.571 1092.57H887.714V1126.71H853.571V1092.57Z" fill="#424A56"/>
<path d="M921.857 1092.57H956V1126.71H921.857V1092.57Z" fill="#424A56"/>
<path d="M990.143 1092.57H1024.29V1126.71H990.143V1092.57Z" fill="#424A56"/>
<path d="M1058.43 1092.57H1092.57V1126.71H1058.43V1092.57Z" fill="#424A56"/>
<path d="M1126.71 1092.57H1160.86V1126.71H1126.71V1092.57Z" fill="#424A56"/>
<path d="M1195 1092.57H1229.14V1126.71H1195V1092.57Z" fill="#424A56"/>
<path d="M1263.29 1092.57H1297.43V1126.71H1263.29V1092.57Z" fill="#424A56"/>
<path d="M1331.57 1092.57H1365.71V1126.71H1331.57V1092.57Z" fill="#424A56"/>
<path d="M1399.86 1092.57H1434V1126.71H1399.86V1092.57Z" fill="#424A56"/>
<path d="M1468.14 1092.57H1502.29V1126.71H1468.14V1092.57Z" fill="#424A56"/>
<path d="M0 1126.71H34.1429V1160.86H0V1126.71Z" fill="#424A56"/>
<path d="M68.2857 1126.71H102.429V1160.86H68.2857V1126.71Z" fill="#424A56"/>
<path d="M136.571 1126.71H170.714V1160.86H136.571V1126.71Z" fill="#424A56"/>
<path d="M204.857 1126.71H239V1160.86H204.857V1126.71Z" fill="#424A56"/>
<path d="M273.143 1126.71H307.286V1160.86H273.143V1126.71Z" fill="#424A56"/>
<path d="M341.429 1126.71H375.571V1160.86H341.429V1126.71Z" fill="#424A56"/>
<path d="M409.714 1126.71H443.857V1160.86H409.714V1126.71Z" fill="#424A56"/>
<path d="M478 1126.71H512.143V1160.86H478V1126.71Z" fill="#424A56"/>
<path d="M546.286 1126.71H580.429V1160.86H546.286V1126.71Z" fill="#424A56"/>
<path d="M614.571 1126.71H648.714V1160.86H614.571V1126.71Z" fill="#424A56"/>
<path d="M682.857 1126.71H717V1160.86H682.857V1126.71Z" fill="#424A56"/>
<path d="M751.143 1126.71H785.286V1160.86H751.143V1126.71Z" fill="#424A56"/>
<path d="M819.429 1126.71H853.571V1160.86H819.429V1126.71Z" fill="#424A56"/>
<path d="M887.714 1126.71H921.857V1160.86H887.714V1126.71Z" fill="#424A56"/>
<path d="M956 1126.71H990.143V1160.86H956V1126.71Z" fill="#424A56"/>
<path d="M1024.29 1126.71H1058.43V1160.86H1024.29V1126.71Z" fill="#424A56"/>
<path d="M1092.57 1126.71H1126.71V1160.86H1092.57V1126.71Z" fill="#424A56"/>
<path d="M1160.86 1126.71H1195V1160.86H1160.86V1126.71Z" fill="#424A56"/>
<path d="M1229.14 1126.71H1263.29V1160.86H1229.14V1126.71Z" fill="#424A56"/>
<path d="M1297.43 1126.71H1331.57V1160.86H1297.43V1126.71Z" fill="#424A56"/>
<path d="M1365.71 1126.71H1399.86V1160.86H1365.71V1126.71Z" fill="#424A56"/>
<path d="M1434 1126.71H1468.14V1160.86H1434V1126.71Z" fill="#424A56"/>
<path d="M34.1429 1160.86H68.2857V1195H34.1429V1160.86Z" fill="#424A56"/>
<path d="M102.429 1160.86H136.571V1195H102.429V1160.86Z" fill="#424A56"/>
<path d="M170.714 1160.86H204.857V1195H170.714V1160.86Z" fill="#424A56"/>
<path d="M239 1160.86H273.143V1195H239V1160.86Z" fill="#424A56"/>
<path d="M307.286 1160.86H341.429V1195H307.286V1160.86Z" fill="#424A56"/>
<path d="M375.571 1160.86H409.714V1195H375.571V1160.86Z" fill="#424A56"/>
<path d="M443.857 1160.86H478V1195H443.857V1160.86Z" fill="#424A56"/>
<path d="M512.143 1160.86H546.286V1195H512.143V1160.86Z" fill="#424A56"/>
<path d="M580.429 1160.86H614.571V1195H580.429V1160.86Z" fill="#424A56"/>
<path d="M648.714 1160.86H682.857V1195H648.714V1160.86Z" fill="#424A56"/>
<path d="M717 1160.86H751.143V1195H717V1160.86Z" fill="#424A56"/>
<path d="M785.286 1160.86H819.429V1195H785.286V1160.86Z" fill="#424A56"/>
<path d="M853.571 1160.86H887.714V1195H853.571V1160.86Z" fill="#424A56"/>
<path d="M921.857 1160.86H956V1195H921.857V1160.86Z" fill="#424A56"/>
<path d="M990.143 1160.86H1024.29V1195H990.143V1160.86Z" fill="#424A56"/>
<path d="M1058.43 1160.86H1092.57V1195H1058.43V1160.86Z" fill="#424A56"/>
<path d="M1126.71 1160.86H1160.86V1195H1126.71V1160.86Z" fill="#424A56"/>
<path d="M1195 1160.86H1229.14V1195H1195V1160.86Z" fill="#424A56"/>
<path d="M1263.29 1160.86H1297.43V1195H1263.29V1160.86Z" fill="#424A56"/>
<path d="M1331.57 1160.86H1365.71V1195H1331.57V1160.86Z" fill="#424A56"/>
<path d="M1399.86 1160.86H1434V1195H1399.86V1160.86Z" fill="#424A56"/>
<path d="M1468.14 1160.86H1502.29V1195H1468.14V1160.86Z" fill="#424A56"/>
<path d="M0 1195H34.1429V1229.14H0V1195Z" fill="#424A56"/>
<path d="M68.2857 1195H102.429V1229.14H68.2857V1195Z" fill="#424A56"/>
<path d="M136.571 1195H170.714V1229.14H136.571V1195Z" fill="#424A56"/>
<path d="M204.857 1195H239V1229.14H204.857V1195Z" fill="#424A56"/>
<path d="M273.143 1195H307.286V1229.14H273.143V1195Z" fill="#424A56"/>
<path d="M341.429 1195H375.571V1229.14H341.429V1195Z" fill="#424A56"/>
<path d="M409.714 1195H443.857V1229.14H409.714V1195Z" fill="#424A56"/>
<path d="M478 1195H512.143V1229.14H478V1195Z" fill="#424A56"/>
<path d="M546.286 1195H580.429V1229.14H546.286V1195Z" fill="#424A56"/>
<path d="M614.571 1195H648.714V1229.14H614.571V1195Z" fill="#424A56"/>
<path d="M682.857 1195H717V1229.14H682.857V1195Z" fill="#424A56"/>
<path d="M751.143 1195H785.286V1229.14H751.143V1195Z" fill="#424A56"/>
<path d="M819.429 1195H853.571V1229.14H819.429V1195Z" fill="#424A56"/>
<path d="M887.714 1195H921.857V1229.14H887.714V1195Z" fill="#424A56"/>
<path d="M956 1195H990.143V1229.14H956V1195Z" fill="#424A56"/>
<path d="M1024.29 1195H1058.43V1229.14H1024.29V1195Z" fill="#424A56"/>
<path d="M1092.57 1195H1126.71V1229.14H1092.57V1195Z" fill="#424A56"/>
<path d="M1160.86 1195H1195V1229.14H1160.86V1195Z" fill="#424A56"/>
<path d="M1229.14 1195H1263.29V1229.14H1229.14V1195Z" fill="#424A56"/>
<path d="M1297.43 1195H1331.57V1229.14H1297.43V1195Z" fill="#424A56"/>
<path d="M1365.71 1195H1399.86V1229.14H1365.71V1195Z" fill="#424A56"/>
<path d="M1434 1195H1468.14V1229.14H1434V1195Z" fill="#424A56"/>
<path d="M34.1429 1229.14H68.2857V1263.29H34.1429V1229.14Z" fill="#424A56"/>
<path d="M102.429 1229.14H136.571V1263.29H102.429V1229.14Z" fill="#424A56"/>
<path d="M170.714 1229.14H204.857V1263.29H170.714V1229.14Z" fill="#424A56"/>
<path d="M239 1229.14H273.143V1263.29H239V1229.14Z" fill="#424A56"/>
<path d="M307.286 1229.14H341.429V1263.29H307.286V1229.14Z" fill="#424A56"/>
<path d="M375.571 1229.14H409.714V1263.29H375.571V1229.14Z" fill="#424A56"/>
<path d="M443.857 1229.14H478V1263.29H443.857V1229.14Z" fill="#424A56"/>
<path d="M512.143 1229.14H546.286V1263.29H512.143V1229.14Z" fill="#424A56"/>
<path d="M580.429 1229.14H614.571V1263.29H580.429V1229.14Z" fill="#424A56"/>
<path d="M648.714 1229.14H682.857V1263.29H648.714V1229.14Z" fill="#424A56"/>
<path d="M717 1229.14H751.143V1263.29H717V1229.14Z" fill="#424A56"/>
<path d="M785.286 1229.14H819.429V1263.29H785.286V1229.14Z" fill="#424A56"/>
<path d="M853.571 1229.14H887.714V1263.29H853.571V1229.14Z" fill="#424A56"/>
<path d="M921.857 1229.14H956V1263.29H921.857V1229.14Z" fill="#424A56"/>
<path d="M990.143 1229.14H1024.29V1263.29H990.143V1229.14Z" fill="#424A56"/>
<path d="M1058.43 1229.14H1092.57V1263.29H1058.43V1229.14Z" fill="#424A56"/>
<path d="M1126.71 1229.14H1160.86V1263.29H1126.71V1229.14Z" fill="#424A56"/>
<path d="M1195 1229.14H1229.14V1263.29H1195V1229.14Z" fill="#424A56"/>
<path d="M1263.29 1229.14H1297.43V1263.29H1263.29V1229.14Z" fill="#424A56"/>
<path d="M1331.57 1229.14H1365.71V1263.29H1331.57V1229.14Z" fill="#424A56"/>
<path d="M1399.86 1229.14H1434V1263.29H1399.86V1229.14Z" fill="#424A56"/>
<path d="M1468.14 1229.14H1502.29V1263.29H1468.14V1229.14Z" fill="#424A56"/>
<path d="M0 1263.29H34.1429V1297.43H0V1263.29Z" fill="#424A56"/>
<path d="M68.2857 1263.29H102.429V1297.43H68.2857V1263.29Z" fill="#424A56"/>
<path d="M136.571 1263.29H170.714V1297.43H136.571V1263.29Z" fill="#424A56"/>
<path d="M204.857 1263.29H239V1297.43H204.857V1263.29Z" fill="#424A56"/>
<path d="M273.143 1263.29H307.286V1297.43H273.143V1263.29Z" fill="#424A56"/>
<path d="M341.429 1263.29H375.571V1297.43H341.429V1263.29Z" fill="#424A56"/>
<path d="M409.714 1263.29H443.857V1297.43H409.714V1263.29Z" fill="#424A56"/>
<path d="M478 1263.29H512.143V1297.43H478V1263.29Z" fill="#424A56"/>
<path d="M546.286 1263.29H580.429V1297.43H546.286V1263.29Z" fill="#424A56"/>
<path d="M614.571 1263.29H648.714V1297.43H614.571V1263.29Z" fill="#424A56"/>
<path d="M682.857 1263.29H717V1297.43H682.857V1263.29Z" fill="#424A56"/>
<path d="M751.143 1263.29H785.286V1297.43H751.143V1263.29Z" fill="#424A56"/>
<path d="M819.429 1263.29H853.571V1297.43H819.429V1263.29Z" fill="#424A56"/>
<path d="M887.714 1263.29H921.857V1297.43H887.714V1263.29Z" fill="#424A56"/>
<path d="M956 1263.29H990.143V1297.43H956V1263.29Z" fill="#424A56"/>
<path d="M1024.29 1263.29H1058.43V1297.43H1024.29V1263.29Z" fill="#424A56"/>
<path d="M1092.57 1263.29H1126.71V1297.43H1092.57V1263.29Z" fill="#424A56"/>
<path d="M1160.86 1263.29H1195V1297.43H1160.86V1263.29Z" fill="#424A56"/>
<path d="M1229.14 1263.29H1263.29V1297.43H1229.14V1263.29Z" fill="#424A56"/>
<path d="M1297.43 1263.29H1331.57V1297.43H1297.43V1263.29Z" fill="#424A56"/>
<path d="M1365.71 1263.29H1399.86V1297.43H1365.71V1263.29Z" fill="#424A56"/>
<path d="M1434 1263.29H1468.14V1297.43H1434V1263.29Z" fill="#424A56"/>
<path d="M34.1429 1297.43H68.2857V1331.57H34.1429V1297.43Z" fill="#424A56"/>
<path d="M102.429 1297.43H136.571V1331.57H102.429V1297.43Z" fill="#424A56"/>
<path d="M170.714 1297.43H204.857V1331.57H170.714V1297.43Z" fill="#424A56"/>
<path d="M239 1297.43H273.143V1331.57H239V1297.43Z" fill="#424A56"/>
<path d="M307.286 1297.43H341.429V1331.57H307.286V1297.43Z" fill="#424A56"/>
<path d="M375.571 1297.43H409.714V1331.57H375.571V1297.43Z" fill="#424A56"/>
<path d="M443.857 1297.43H478V1331.57H443.857V1297.43Z" fill="#424A56"/>
<path d="M512.143 1297.43H546.286V1331.57H512.143V1297.43Z" fill="#424A56"/>
<path d="M580.429 1297.43H614.571V1331.57H580.429V1297.43Z" fill="#424A56"/>
<path d="M648.714 1297.43H682.857V1331.57H648.714V1297.43Z" fill="#424A56"/>
<path d="M717 1297.43H751.143V1331.57H717V1297.43Z" fill="#424A56"/>
<path d="M785.286 1297.43H819.429V1331.57H785.286V1297.43Z" fill="#424A56"/>
<path d="M853.571 1297.43H887.714V1331.57H853.571V1297.43Z" fill="#424A56"/>
<path d="M921.857 1297.43H956V1331.57H921.857V1297.43Z" fill="#424A56"/>
<path d="M990.143 1297.43H1024.29V1331.57H990.143V1297.43Z" fill="#424A56"/>
<path d="M1058.43 1297.43H1092.57V1331.57H1058.43V1297.43Z" fill="#424A56"/>
<path d="M1126.71 1297.43H1160.86V1331.57H1126.71V1297.43Z" fill="#424A56"/>
<path d="M1195 1297.43H1229.14V1331.57H1195V1297.43Z" fill="#424A56"/>
<path d="M1263.29 1297.43H1297.43V1331.57H1263.29V1297.43Z" fill="#424A56"/>
<path d="M1331.57 1297.43H1365.71V1331.57H1331.57V1297.43Z" fill="#424A56"/>
<path d="M1399.86 1297.43H1434V1331.57H1399.86V1297.43Z" fill="#424A56"/>
<path d="M1468.14 1297.43H1502.29V1331.57H1468.14V1297.43Z" fill="#424A56"/>
<path d="M0 1331.57H34.1429V1365.71H0V1331.57Z" fill="#424A56"/>
<path d="M68.2857 1331.57H102.429V1365.71H68.2857V1331.57Z" fill="#424A56"/>
<path d="M136.571 1331.57H170.714V1365.71H136.571V1331.57Z" fill="#424A56"/>
<path d="M204.857 1331.57H239V1365.71H204.857V1331.57Z" fill="#424A56"/>
<path d="M273.143 1331.57H307.286V1365.71H273.143V1331.57Z" fill="#424A56"/>
<path d="M341.429 1331.57H375.571V1365.71H341.429V1331.57Z" fill="#424A56"/>
<path d="M409.714 1331.57H443.857V1365.71H409.714V1331.57Z" fill="#424A56"/>
<path d="M478 1331.57H512.143V1365.71H478V1331.57Z" fill="#424A56"/>
<path d="M546.286 1331.57H580.429V1365.71H546.286V1331.57Z" fill="#424A56"/>
<path d="M614.571 1331.57H648.714V1365.71H614.571V1331.57Z" fill="#424A56"/>
<path d="M682.857 1331.57H717V1365.71H682.857V1331.57Z" fill="#424A56"/>
<path d="M751.143 1331.57H785.286V1365.71H751.143V1331.57Z" fill="#424A56"/>
<path d="M819.429 1331.57H853.571V1365.71H819.429V1331.57Z" fill="#424A56"/>
<path d="M887.714 1331.57H921.857V1365.71H887.714V1331.57Z" fill="#424A56"/>
<path d="M956 1331.57H990.143V1365.71H956V1331.57Z" fill="#424A56"/>
<path d="M1024.29 1331.57H1058.43V1365.71H1024.29V1331.57Z" fill="#424A56"/>
<path d="M1092.57 1331.57H1126.71V1365.71H1092.57V1331.57Z" fill="#424A56"/>
<path d="M1160.86 1331.57H1195V1365.71H1160.86V1331.57Z" fill="#424A56"/>
<path d="M1229.14 1331.57H1263.29V1365.71H1229.14V1331.57Z" fill="#424A56"/>
<path d="M1297.43 1331.57H1331.57V1365.71H1297.43V1331.57Z" fill="#424A56"/>
<path d="M1365.71 1331.57H1399.86V1365.71H1365.71V1331.57Z" fill="#424A56"/>
<path d="M1434 1331.57H1468.14V1365.71H1434V1331.57Z" fill="#424A56"/>
<path d="M34.1429 1365.71H68.2857V1399.86H34.1429V1365.71Z" fill="#424A56"/>
<path d="M102.429 1365.71H136.571V1399.86H102.429V1365.71Z" fill="#424A56"/>
<path d="M170.714 1365.71H204.857V1399.86H170.714V1365.71Z" fill="#424A56"/>
<path d="M239 1365.71H273.143V1399.86H239V1365.71Z" fill="#424A56"/>
<path d="M307.286 1365.71H341.429V1399.86H307.286V1365.71Z" fill="#424A56"/>
<path d="M375.571 1365.71H409.714V1399.86H375.571V1365.71Z" fill="#424A56"/>
<path d="M443.857 1365.71H478V1399.86H443.857V1365.71Z" fill="#424A56"/>
<path d="M512.143 1365.71H546.286V1399.86H512.143V1365.71Z" fill="#424A56"/>
<path d="M580.429 1365.71H614.571V1399.86H580.429V1365.71Z" fill="#424A56"/>
<path d="M648.714 1365.71H682.857V1399.86H648.714V1365.71Z" fill="#424A56"/>
<path d="M717 1365.71H751.143V1399.86H717V1365.71Z" fill="#424A56"/>
<path d="M785.286 1365.71H819.429V1399.86H785.286V1365.71Z" fill="#424A56"/>
<path d="M853.571 1365.71H887.714V1399.86H853.571V1365.71Z" fill="#424A56"/>
<path d="M921.857 1365.71H956V1399.86H921.857V1365.71Z" fill="#424A56"/>
<path d="M990.143 1365.71H1024.29V1399.86H990.143V1365.71Z" fill="#424A56"/>
<path d="M1058.43 1365.71H1092.57V1399.86H1058.43V1365.71Z" fill="#424A56"/>
<path d="M1126.71 1365.71H1160.86V1399.86H1126.71V1365.71Z" fill="#424A56"/>
<path d="M1195 1365.71H1229.14V1399.86H1195V1365.71Z" fill="#424A56"/>
<path d="M1263.29 1365.71H1297.43V1399.86H1263.29V1365.71Z" fill="#424A56"/>
<path d="M1331.57 1365.71H1365.71V1399.86H1331.57V1365.71Z" fill="#424A56"/>
<path d="M1399.86 1365.71H1434V1399.86H1399.86V1365.71Z" fill="#424A56"/>
<path d="M1468.14 1365.71H1502.29V1399.86H1468.14V1365.71Z" fill="#424A56"/>
<path d="M0 1399.86H34.1429V1434H0V1399.86Z" fill="#424A56"/>
<path d="M68.2857 1399.86H102.429V1434H68.2857V1399.86Z" fill="#424A56"/>
<path d="M136.571 1399.86H170.714V1434H136.571V1399.86Z" fill="#424A56"/>
<path d="M204.857 1399.86H239V1434H204.857V1399.86Z" fill="#424A56"/>
<path d="M273.143 1399.86H307.286V1434H273.143V1399.86Z" fill="#424A56"/>
<path d="M341.429 1399.86H375.571V1434H341.429V1399.86Z" fill="#424A56"/>
<path d="M409.714 1399.86H443.857V1434H409.714V1399.86Z" fill="#424A56"/>
<path d="M478 1399.86H512.143V1434H478V1399.86Z" fill="#424A56"/>
<path d="M546.286 1399.86H580.429V1434H546.286V1399.86Z" fill="#424A56"/>
<path d="M614.571 1399.86H648.714V1434H614.571V1399.86Z" fill="#424A56"/>
<path d="M682.857 1399.86H717V1434H682.857V1399.86Z" fill="#424A56"/>
<path d="M751.143 1399.86H785.286V1434H751.143V1399.86Z" fill="#424A56"/>
<path d="M819.429 1399.86H853.571V1434H819.429V1399.86Z" fill="#424A56"/>
<path d="M887.714 1399.86H921.857V1434H887.714V1399.86Z" fill="#424A56"/>
<path d="M956 1399.86H990.143V1434H956V1399.86Z" fill="#424A56"/>
<path d="M1024.29 1399.86H1058.43V1434H1024.29V1399.86Z" fill="#424A56"/>
<path d="M1092.57 1399.86H1126.71V1434H1092.57V1399.86Z" fill="#424A56"/>
<path d="M1160.86 1399.86H1195V1434H1160.86V1399.86Z" fill="#424A56"/>
<path d="M1229.14 1399.86H1263.29V1434H1229.14V1399.86Z" fill="#424A56"/>
<path d="M1297.43 1399.86H1331.57V1434H1297.43V1399.86Z" fill="#424A56"/>
<path d="M1365.71 1399.86H1399.86V1434H1365.71V1399.86Z" fill="#424A56"/>
<path d="M1434 1399.86H1468.14V1434H1434V1399.86Z" fill="#424A56"/>
<rect width="512" height="512" fill="black" fill-opacity="0.5"/>
</g>
<defs>
<clipPath id="clip0_1289_111">
<rect width="512" height="512" fill="white"/>
</clipPath>
</defs>
</svg>
