<?xml version="1.0" standalone="no"?>
<!DOCTYPE svg PUBLIC "-//W3C//DTD SVG 20010904//EN"
 "http://www.w3.org/TR/2001/REC-SVG-20010904/DTD/svg10.dtd">
<svg version="1.0" xmlns="http://www.w3.org/2000/svg"
 width="512.000000pt" height="512.000000pt" viewBox="0 0 512.000000 512.000000"
 preserveAspectRatio="xMidYMid meet">

<g transform="translate(0.000000,512.000000) scale(0.100000,-0.100000)"
fill="#000000" stroke="none">
<path d="M175 5095 c-38 -7 -89 -18 -112 -25 l-43 -13 0 -109 0 -108 49 0 48
0 7 69 c8 77 17 89 86 118 33 13 71 18 145 18 88 0 105 -3 142 -24 82 -47 118
-129 117 -266 -3 -221 -100 -307 -366 -322 l-108 -6 0 -27 0 -28 123 -4 c156
-6 219 -28 293 -103 44 -43 56 -65 75 -125 54 -180 -16 -390 -156 -463 -55
-29 -168 -28 -245 2 -96 37 -120 69 -120 155 l0 56 -50 0 -50 0 0 -125 0 -124
37 -10 c146 -38 387 -46 488 -17 86 26 145 59 198 109 86 84 123 193 115 338
-10 174 -92 270 -286 334 l-53 17 70 33 c77 37 142 91 178 148 53 84 66 223
29 311 -35 85 -135 160 -253 191 -70 18 -259 19 -358 0z"/>
<path d="M1300 5094 c-151 -40 -261 -135 -334 -286 -67 -140 -95 -279 -96
-473 -1 -354 108 -604 302 -695 234 -110 517 -9 626 223 74 157 70 361 -11
496 -137 229 -457 267 -653 77 l-57 -55 6 122 c13 260 101 459 232 522 91 43
236 26 310 -38 37 -32 39 -37 43 -100 l4 -67 49 0 49 0 0 114 0 115 -53 19
c-115 43 -307 55 -417 26z m191 -626 c65 -27 112 -89 142 -182 18 -59 22 -95
22 -206 0 -201 -37 -310 -128 -384 -34 -27 -48 -31 -111 -34 -59 -3 -81 0
-119 18 -118 56 -198 216 -213 427 -8 107 6 184 45 245 75 118 238 170 362
116z"/>
<path d="M2243 5095 c-113 -31 -205 -100 -251 -190 -20 -39 -27 -69 -30 -137
-4 -81 -2 -92 26 -151 28 -62 91 -135 157 -187 18 -13 25 -24 18 -27 -37 -13
-134 -86 -172 -129 -111 -125 -140 -318 -68 -461 47 -93 162 -175 283 -204 74
-17 238 -15 313 5 133 34 239 117 290 226 28 58 31 75 31 156 0 56 -6 108 -15
135 -36 103 -124 193 -256 264 l-62 33 65 41 c138 87 211 200 211 325 1 156
-99 268 -271 305 -72 15 -205 13 -269 -4z m212 -56 c59 -17 129 -90 149 -158
38 -129 2 -264 -100 -370 l-53 -53 -51 29 c-101 58 -200 134 -229 174 -54 73
-62 178 -20 260 22 45 92 106 134 118 43 13 123 13 170 0z m-136 -726 c182
-98 279 -175 312 -248 23 -50 25 -164 3 -227 -21 -64 -74 -122 -140 -154 -74
-36 -178 -38 -247 -5 -55 27 -112 87 -140 150 -29 64 -36 232 -13 321 23 88
97 210 128 210 6 0 50 -21 97 -47z"/>
<path d="M3190 5091 c-76 -24 -107 -42 -164 -92 -112 -98 -168 -230 -168 -394
0 -205 82 -345 250 -423 52 -24 68 -27 172 -27 107 0 119 2 175 29 34 17 85
55 118 87 l57 57 0 -52 c0 -269 -99 -523 -229 -591 -85 -43 -213 -36 -296 16
-52 33 -61 51 -70 132 l-6 57 -45 0 -44 0 0 -119 0 -118 66 -22 c37 -12 108
-26 159 -30 277 -27 464 69 576 294 126 256 128 698 4 952 -64 129 -164 216
-289 249 -71 19 -199 17 -266 -5z m226 -69 c74 -38 146 -139 180 -251 7 -25
18 -86 23 -136 19 -162 -12 -270 -96 -344 -61 -54 -124 -74 -222 -70 -91 5
-134 28 -182 99 -47 70 -61 131 -66 280 -8 237 47 380 167 435 46 21 142 14
196 -13z"/>
<path d="M4229 5087 c-213 -73 -342 -305 -364 -657 -19 -292 57 -561 200 -706
71 -72 145 -110 238 -123 206 -29 370 66 471 271 78 159 90 217 90 473 1 199
-1 228 -22 310 -61 233 -187 391 -351 439 -78 23 -182 20 -262 -7z m226 -56
c79 -36 142 -128 175 -256 46 -181 52 -598 11 -792 -45 -215 -137 -326 -270
-326 -163 0 -258 144 -292 443 -17 153 -6 518 19 635 32 148 104 265 186 301
44 19 124 17 171 -5z"/>
<path d="M270 3564 c-36 -7 -100 -26 -143 -41 l-77 -26 0 -134 0 -134 48 3 47
3 3 45 c5 82 22 147 45 168 63 60 213 88 304 58 168 -56 235 -315 133 -516
-38 -74 -90 -133 -299 -340 -145 -143 -185 -189 -222 -255 -68 -119 -89 -176
-89 -239 l0 -56 430 0 430 0 0 85 0 85 -351 0 -352 0 7 42 c14 88 99 216 197
298 31 26 108 82 170 125 147 101 245 200 290 291 32 64 34 75 34 169 0 88 -3
107 -27 157 -48 102 -148 180 -275 213 -71 19 -216 18 -303 -1z"/>
<path d="M2988 3531 l-228 -45 0 -28 c0 -33 -3 -33 127 -11 98 17 104 17 120
0 17 -16 18 -60 21 -595 3 -592 0 -642 -36 -657 -9 -4 -65 -9 -124 -12 l-108
-6 0 -28 0 -29 370 0 370 0 0 29 0 28 -107 6 c-124 6 -141 11 -154 44 -5 14
-9 305 -9 683 0 362 -3 661 -7 663 -5 2 -110 -17 -235 -42z"/>
<path d="M1251 3088 c-358 -478 -361 -482 -361 -530 l0 -48 330 0 330 0 0
-137 c0 -76 -3 -148 -6 -160 -7 -26 -42 -39 -131 -48 -61 -7 -63 -8 -63 -36
l0 -29 275 0 275 0 0 29 c0 27 -3 29 -47 35 -71 10 -110 25 -119 44 -4 9 -9
81 -12 160 l-4 142 96 0 96 0 0 70 0 69 -92 3 -93 3 -3 458 -2 457 -54 0 -54
0 -361 -482z m299 -73 l0 -365 -271 0 c-223 0 -270 2 -267 14 3 12 529 716
536 716 1 0 2 -164 2 -365z"/>
<path d="M1970 3250 l0 -320 59 0 c74 0 201 -17 262 -35 110 -32 183 -94 214
-184 25 -71 30 -213 11 -294 -42 -178 -133 -261 -286 -260 -132 1 -180 44
-180 163 l0 50 -50 0 -51 0 3 -122 3 -123 60 -13 c89 -19 286 -18 368 2 224
53 347 204 347 426 0 186 -75 317 -223 389 -94 46 -168 62 -327 69 l-145 7 -3
203 -2 202 335 0 335 0 0 80 0 80 -365 0 -365 0 0 -320z"/>
<path d="M3520 3485 l0 -85 405 0 c223 0 405 -3 405 -6 0 -3 -74 -105 -164
-227 -340 -461 -407 -565 -484 -747 -39 -91 -82 -234 -82 -272 0 -16 10 -18
110 -18 l109 0 5 33 c36 241 76 372 176 575 94 193 200 365 369 600 80 111 81
114 81 172 l0 60 -465 0 -465 0 0 -85z"/>
<path d="M20 1350 l0 -720 370 0 370 0 0 720 0 720 -370 0 -370 0 0 -720z
m620 0 l0 -600 -250 0 -250 0 0 600 0 600 250 0 250 0 0 -600z"/>
</g>
</svg>
