<?xml version="1.0" standalone="no"?>
<!DOCTYPE svg PUBLIC "-//W3C//DTD SVG 20010904//EN"
 "http://www.w3.org/TR/2001/REC-SVG-20010904/DTD/svg10.dtd">
<svg version="1.0" xmlns="http://www.w3.org/2000/svg"
 width="512.000000pt" height="512.000000pt" viewBox="0 0 512.000000 512.000000"
 preserveAspectRatio="xMidYMid meet">

<g transform="translate(0.000000,512.000000) scale(0.100000,-0.100000)"
fill="#000000" stroke="none">
<path d="M85 5105 c-5 -2 -22 -6 -37 -9 -25 -6 -28 -11 -28 -46 0 -49 22 -54
35 -7 9 27 16 33 51 41 84 17 137 -47 114 -135 -13 -48 -45 -71 -111 -77 -63
-6 -63 -18 0 -24 28 -3 62 -13 76 -22 91 -60 53 -226 -52 -226 -48 0 -83 23
-83 56 0 17 -5 24 -20 24 -17 0 -20 -7 -20 -40 0 -50 20 -60 117 -60 109 0
167 43 179 132 7 60 -19 107 -73 133 l-43 21 36 19 c87 47 87 163 -1 205 -36
18 -109 25 -140 15z"/>
<path d="M445 5092 c-50 -24 -68 -44 -97 -107 -18 -41 -22 -68 -23 -151 0 -92
2 -105 30 -159 35 -68 76 -95 146 -95 128 0 205 148 139 269 -33 62 -152 83
-208 36 -17 -14 -33 -25 -36 -25 -7 0 1 66 15 122 12 48 52 95 88 103 17 4 44
0 65 -9 28 -12 36 -21 36 -40 0 -19 5 -26 20 -26 17 0 20 7 20 39 0 45 -8 50
-95 57 -46 4 -69 0 -100 -14z m113 -222 c53 -50 54 -198 1 -251 -40 -40 -117
-11 -145 57 -19 46 -18 144 2 172 31 44 106 56 142 22z"/>
<path d="M793 5091 c-48 -22 -73 -62 -73 -115 0 -27 9 -46 35 -75 l36 -39 -32
-23 c-41 -29 -73 -100 -65 -144 14 -73 76 -115 168 -115 158 0 224 155 109
253 -17 14 -36 27 -43 29 -7 3 5 20 30 42 72 66 67 151 -12 187 -52 24 -100
24 -153 0z m128 -30 c33 -33 37 -71 16 -124 -24 -56 -40 -62 -85 -33 -51 32
-72 62 -72 101 1 77 86 111 141 56z m17 -297 c33 -38 30 -97 -7 -135 -67 -66
-171 -13 -171 88 0 40 16 93 36 114 15 17 18 16 67 -12 29 -17 62 -41 75 -55z"/>
<path d="M1155 5096 c-89 -40 -127 -141 -89 -236 36 -91 148 -117 224 -54 l30
26 0 -31 c0 -108 -55 -201 -119 -201 -47 0 -82 20 -88 52 -9 44 -33 35 -33
-12 0 -35 4 -42 28 -51 15 -6 57 -9 93 -7 81 4 125 33 160 105 21 42 24 62 24
168 0 114 -1 122 -28 168 -44 75 -129 105 -202 73z m94 -21 c57 -29 90 -159
57 -223 -31 -60 -109 -74 -155 -28 -22 22 -26 36 -29 100 -5 83 13 136 51 154
30 15 44 14 76 -3z"/>
<path d="M1540 5099 c-36 -15 -69 -48 -93 -94 -19 -35 -22 -56 -22 -160 0
-106 3 -126 24 -168 60 -122 202 -131 278 -19 73 109 46 356 -47 422 -36 26
-103 35 -140 19z m84 -21 c14 -6 36 -32 48 -57 20 -40 23 -61 23 -171 0 -97
-4 -136 -18 -173 -39 -100 -117 -104 -168 -7 -8 15 -15 73 -17 146 -5 142 12
220 54 253 31 24 43 26 78 9z"/>
<path d="M2160 5097 c-45 -12 -45 -12 -48 -59 -2 -38 0 -48 12 -48 9 0 16 9
16 21 0 34 18 57 54 69 88 29 153 -49 126 -150 -8 -31 -32 -63 -97 -128 -78
-78 -133 -160 -133 -199 0 -10 38 -13 155 -13 l155 0 0 30 0 30 -126 0 c-111
0 -125 2 -120 16 3 9 6 19 6 24 0 18 56 74 127 126 57 42 80 66 95 101 33 76
9 140 -66 174 -46 21 -91 23 -156 6z"/>
<path d="M2800 4996 l0 -113 54 -6 c103 -10 136 -45 136 -140 0 -89 -42 -134
-116 -125 -22 2 -33 11 -43 36 -20 45 -41 42 -41 -7 0 -46 9 -51 91 -51 69 0
114 16 149 55 22 23 25 36 25 102 0 73 -1 75 -37 108 -35 33 -49 37 -150 50
l-48 6 0 70 0 69 115 0 115 0 0 30 0 30 -125 0 -125 0 0 -114z"/>
<path d="M3090 5076 l0 -35 140 -3 139 -3 -85 -115 c-87 -118 -149 -230 -160
-287 -6 -33 -6 -33 33 -33 l40 0 6 49 c9 76 62 191 144 313 40 61 72 119 71
127 -3 14 -27 16 -166 19 l-162 2 0 -34z"/>
<path d="M3447 5104 c-4 -4 -7 -119 -7 -256 l0 -248 135 0 135 0 -2 253 -3
252 -126 3 c-69 1 -128 -1 -132 -4z m213 -254 l0 -210 -85 0 -85 0 0 210 0
210 85 0 85 0 0 -210z"/>
<path d="M1873 5083 c-82 -17 -97 -36 -25 -31 l47 3 3 -209 c2 -145 -1 -213
-9 -222 -6 -8 -29 -14 -50 -14 -22 0 -39 -4 -39 -10 0 -6 50 -10 130 -10 80 0
130 4 130 10 0 6 -13 10 -29 10 -64 0 -61 -11 -61 251 0 185 -3 239 -12 238
-7 -1 -46 -8 -85 -16z"/>
<path d="M2535 4933 c-69 -91 -125 -174 -125 -185 0 -16 10 -18 115 -18 l115
0 0 -55 c0 -54 0 -54 -35 -61 -66 -12 -35 -24 65 -24 60 0 100 4 100 10 0 6
-9 10 -19 10 -32 0 -51 28 -51 76 0 44 0 44 35 44 30 0 35 3 35 24 0 21 -6 25
-32 28 l-33 3 -3 158 c-3 209 -3 209 -167 -10z m102 -150 c-3 -2 -46 -2 -96
-1 l-92 3 93 122 93 123 3 -122 c1 -66 1 -123 -1 -125z"/>
</g>
</svg>
