<svg width="329" height="273" viewBox="0 0 329 273" fill="none" xmlns="http://www.w3.org/2000/svg">
<rect x="18" y="20" width="5" height="84" fill="#BC380E"/>
<rect x="108" y="20" width="5" height="84" fill="#BC380E"/>
<rect x="197" y="20" width="5" height="84" fill="#BC380E"/>
<rect x="288" y="20" width="5" height="84" fill="#BC380E"/>
<path fill-rule="evenodd" clip-rule="evenodd" d="M40 20C40 31.0457 31.0457 40 20 40C8.9543 40 0 31.0457 0 20C0 8.9543 8.9543 0 20 0C31.0457 0 40 8.9543 40 20ZM19.3548 1.29041H20.6451V18.0646H19.3548V1.29041ZM20 20.6451C20.3563 20.6451 20.6451 20.3563 20.6451 20C20.6451 19.6436 20.3563 19.3548 20 19.3548C19.6436 19.3548 19.3548 19.6436 19.3548 20C19.3548 20.3563 19.6436 20.6451 20 20.6451Z" fill="#1465DF"/>
<path fill-rule="evenodd" clip-rule="evenodd" d="M130 20C130 31.0457 121.046 40 110 40C98.9543 40 90 31.0457 90 20C90 8.9543 98.9543 0 110 0C121.046 0 130 8.9543 130 20ZM109.355 1.29041H110.645V18.0646H109.355V1.29041ZM110 20.6451C110.356 20.6451 110.645 20.3563 110.645 20C110.645 19.6436 110.356 19.3548 110 19.3548C109.644 19.3548 109.355 19.6436 109.355 20C109.355 20.3563 109.644 20.6451 110 20.6451Z" fill="#1465DF"/>
<path fill-rule="evenodd" clip-rule="evenodd" d="M220 20C220 31.0457 211.046 40 200 40C188.954 40 180 31.0457 180 20C180 8.9543 188.954 0 200 0C211.046 0 220 8.9543 220 20ZM199.355 1.29041H200.645V18.0646H199.355V1.29041ZM200 20.6451C200.356 20.6451 200.645 20.3563 200.645 20C200.645 19.6436 200.356 19.3548 200 19.3548C199.644 19.3548 199.355 19.6436 199.355 20C199.355 20.3563 199.644 20.6451 200 20.6451Z" fill="#1465DF"/>
<path fill-rule="evenodd" clip-rule="evenodd" d="M310 20C310 31.0457 301.046 40 290 40C278.954 40 270 31.0457 270 20C270 8.9543 278.954 0 290 0C301.046 0 310 8.9543 310 20ZM289.355 1.29041H290.645V18.0646H289.355V1.29041ZM290 20.6451C290.356 20.6451 290.645 20.3563 290.645 20C290.645 19.6436 290.356 19.3548 290 19.3548C289.644 19.3548 289.355 19.6436 289.355 20C289.355 20.3563 289.644 20.6451 290 20.6451Z" fill="#1465DF"/>
<path d="M10 194.909V104H31.9727V177.065H69.7923V194.909H10Z" fill="#1465DF"/>
<path d="M90 194.909V104H127.908C134.715 104 140.411 104.962 144.998 106.885C149.615 108.809 153.077 111.502 155.385 114.964C157.723 118.426 158.892 122.436 158.892 126.994C158.892 130.456 158.167 133.548 156.717 136.271C155.267 138.964 153.269 141.198 150.724 142.974C148.179 144.749 145.235 145.992 141.891 146.702V147.59C145.56 147.768 148.949 148.759 152.056 150.564C155.193 152.369 157.708 154.885 159.602 158.11C161.496 161.306 162.443 165.094 162.443 169.474C162.443 174.357 161.2 178.722 158.714 182.569C156.229 186.386 152.633 189.405 147.928 191.624C143.223 193.814 137.511 194.909 130.794 194.909H90ZM111.973 177.198H125.556C130.32 177.198 133.827 176.295 136.076 174.49C138.355 172.685 139.494 170.17 139.494 166.944C139.494 164.606 138.946 162.594 137.852 160.907C136.757 159.191 135.203 157.874 133.191 156.956C131.178 156.009 128.767 155.536 125.955 155.536H111.973V177.198ZM111.973 141.376H124.135C126.532 141.376 128.663 140.976 130.527 140.177C132.392 139.378 133.842 138.224 134.877 136.715C135.943 135.206 136.475 133.386 136.475 131.255C136.475 128.207 135.395 125.81 133.235 124.064C131.075 122.318 128.16 121.445 124.49 121.445H111.973V141.376Z" fill="#1A932C"/>
<path d="M219.727 104H180V219.272C180.055 230.072 182.632 239.515 187.734 247.601C192.835 255.633 199.891 261.874 208.9 266.325C217.854 270.775 228.22 273 239.997 273C250.417 273 259.887 271.182 268.408 267.546C276.874 263.91 283.631 258.265 288.678 250.613C293.671 242.961 296.14 233.165 296.086 221.225H255.953C255.79 225.513 254.976 229.176 253.51 232.215C251.991 235.2 249.901 237.452 247.242 238.972C244.583 240.492 241.408 241.251 237.718 241.251C233.864 241.251 230.608 240.437 227.949 238.809C225.289 237.127 223.281 234.658 221.925 231.401C220.514 228.145 219.781 224.102 219.727 219.272V104Z" fill="#BC380E"/>
<path d="M252 121.844V104H328.838V121.844H301.272V194.909H279.61V121.844H252Z" fill="#0EBC88"/>
</svg>
