<svg width="512" height="512" viewBox="0 0 512 512" fill="none" xmlns="http://www.w3.org/2000/svg">
    <path
        d="M26.4999 4.7C13.7999 7.5 7.99995 14.3 7.99995 26.2C8.09995 36.1 11.3999 41.7 21.1999 48.2L24.7999 50.7L21.6999 52.5C11.0999 58.5 6.09995 65.4 5.29995 75C4.39995 85 8.29995 92.7 16.7999 97.7C21.0999 100.3 22.3999 100.5 31.4999 100.5C42.9999 100.5 47.0999 98.9 53.2999 92.1C58.7999 86 60.1999 78.7 57.7999 69.2C56.4999 63.9 48.9999 55.6 42.5999 52.3L38.8999 50.4L44.3999 46.7C52.4999 41.3 55.3999 36.4 55.7999 27.5C56.0999 21.7 55.7999 19.5 54.0999 16.1C49.6999 7.5 37.0999 2.3 26.4999 4.7ZM40.9999 12.2C46.6999 15.2 49.0999 19.3 49.0999 26.4C49.0999 34.6 46.4999 38.7 37.0999 44.5C32.7999 47.2 32.5999 47.2 29.0999 45.5C24.0999 43.1 18.1999 38.2 16.5999 35.1C13.0999 28.3 13.8999 20.7 18.5999 15.1C23.0999 9.7 33.3999 8.4 40.9999 12.2ZM37.4999 56.9C47.2999 62.6 51.9999 69.1 51.9999 76.9C51.9999 84.3 47.7999 90.8 41.2999 93.6C36.0999 95.8 25.1999 95.4 20.4999 92.7C9.69994 86.7 9.19994 69.5 19.5999 61.3C24.3999 57.6 30.1999 54 31.4999 54C32.0999 54 34.7999 55.3 37.4999 56.9Z"
        fill="url(#paint0_linear_323_14)" />
    <path
        d="M220.3 5.90001C200.6 13.1 191.5 31.8 191.6 65.5C191.6 78.6 191.9 81.2 193.9 86.2C197.6 95.8 205.3 101 215.7 101C233.1 101 243.9 85.2 238.6 67.6C235.5 57.4 228.3 52.1 217.7 52C211.4 52 206.4 53.7 201.2 57.7L197.8 60.3L198.5 52.9C200.9 29.2 211.3 13.3 226.2 10.5C230.2 9.70001 231.7 7.60001 229.9 5.40001C228.4 3.60001 226.6 3.70001 220.3 5.90001ZM221 58C225.3 59.2 230.3 64.2 231.9 68.9C234.7 77.3 232 87.7 225.9 92.1C223.4 93.9 220.9 94.6 215.7 94.8L208.9 95.2L205.2 91.3C199.5 85.3 196.2 71.5 199.2 66.8C201.5 63.4 208.5 58.8 212.8 58C214.8 57.6 216.7 57.2 217 57.1C217.3 57.1 219.1 57.5 221 58Z"
        fill="url(#paint1_linear_323_14)" />
    <path
        d="M83 53.6009C73.8 56.1009 73 57.0009 73 64.9009C73 70.1009 73.4 71.9009 74.5 72.4009C77.7 73.6009 79 72.0009 79 66.4009V61.1009L84.2 59.5009C93.8 56.7009 103.4 57.7009 108 62.0009C110.6 64.4009 111 65.6009 111 69.8009C111 73.2009 110.4 75.5009 109 77.2009C106.7 80.2009 99.2 83.6009 92.7 84.5009C87.7 85.3009 85.8 87.2009 87.9 89.3009C88.5 89.9009 91.8 91.0009 95.1 91.7009C103 93.3009 109.3 97.0009 111.4 101.401C114.9 108.901 112.3 117.801 105.6 121.301C100.8 123.801 88.3 123.901 82.3 121.501C78.2 119.901 78.1 119.701 77.8 114.801C77.5 109.401 75.7 107.101 72.6 108.301C71.4 108.801 71 110.301 71 115.401C71 121.101 71.3 122.101 73.5 123.801C80.5 129.301 101 130.701 109.7 126.201C123.5 119.101 122.9 97.1009 108.7 89.9009L104.6 87.8009L107.6 86.3009C116.7 81.6009 120.5 71.8009 116.6 62.7009C112.8 53.5009 98.2 49.5009 83 53.6009Z"
        fill="url(#paint2_linear_323_14)" />
    <path
        d="M265.1 53.0007C260.2 54.2007 253.8 59.0007 251.3 63.5007C246.8 71.5007 247.4 82.6007 252.7 90.2007C258.7 98.9007 272.5 101.601 283.4 96.2007C286.5 94.6007 289 93.8007 289 94.4007C289 97.3007 282.6 108.501 278.3 113.101C273 118.801 270 120.601 262 123.001C257.8 124.201 256.5 125.101 256.5 126.601C256.5 128.301 257.2 128.501 262.1 128.401C277.1 128.101 292.6 112.201 296.1 93.5007C297.6 85.5007 296.6 72.8007 294 65.7007C289.9 54.7007 278.7 49.8007 265.1 53.0007ZM280.9 60.0007C286 62.5007 289.1 68.9007 289.8 77.9007C290.2 84.5007 290.2 84.7007 286.9 87.5007C282.1 91.4007 277.9 93.0007 271.8 93.0007C264.8 93.0007 260.2 90.5007 257.3 85.0007C254.3 79.4007 254.3 72.8007 257.3 67.0007C261.3 58.9007 272.4 55.6007 280.9 60.0007Z"
        fill="url(#paint3_linear_323_14)" />
    <path d="M323.6 53.2002C310.8 56.6002 304.9 76.8002 312.6 91.0002C321.1 106.7 344.7 105 351.7 88.1002C353.9 82.9002 353.7 70.3002 351.3 64.9002C346.7 54.5002 336 50.0002 323.6 53.2002ZM339.1 60.3002C348.7 66.7002 349.2 86.5002 339.8 93.3002C335.9 96.2002 328.3 96.6002 324 94.2002C313.2 88.2002 313.2 65.2002 324 59.8002C328.9 57.3002 335 57.5002 339.1 60.3002Z"
        fill="url(#paint4_linear_323_14)" />
    <path
        d="M376.3 53.3992C368.7 55.2992 368 56.1992 368 63.6992C368 68.6992 368.4 70.1992 369.6 70.6992C372.5 71.7992 374.5 69.4992 375 64.4992C375.5 59.8992 375.7 59.5992 379 58.6992C384.5 57.2992 396.6 58.3992 399 60.4992C401.5 62.6992 401.6 67.1992 399.3 69.1992C398.3 70.0992 392 73.4992 385.3 76.8992C372.3 83.4992 368.8 86.5992 366.9 92.9992C364.7 100.199 364.4 100.099 388.2 99.7992L409.5 99.4992L409.8 92.7992C410.1 86.8992 409.9 85.9992 408 84.9992C404.8 83.2992 403 85.3992 403 90.5992V94.9992H388C379.5 94.9992 373 94.5992 373 94.0992C373 91.0992 379.3 86.3992 390.6 80.8992C404.2 74.2992 408 70.8992 408 65.4992C408 56.8992 402.4 52.9992 389.5 52.3992C384.9 52.1992 379.3 52.5992 376.3 53.3992Z"
        fill="url(#paint5_linear_323_14)" />
    <path
        d="M442.6 54.2006C436.3 64.1006 418 97.6006 418.4 98.7006C418.8 99.6006 423 100.001 434.7 100.201L450.5 100.501L451 114.501C451.5 128.301 451.5 128.501 453.9 128.801C455.2 129.001 456.7 128.601 457.1 127.801C457.6 127.101 458 120.601 458 113.301V100.101L463.3 99.8006C467.7 99.5006 468.5 99.2006 468.5 97.5006C468.5 95.8006 467.7 95.5006 463.3 95.2006L458.1 94.9006L457.8 90.3006C457.5 85.4006 455.6 83.2006 452.6 84.3006C451.4 84.8006 451 86.2006 451 90.0006V95.0006H438.9C432.3 95.0006 427.1 94.7006 427.3 94.2006C445.7 62.4006 449.2 55.6006 448.3 54.1006C446.7 51.6006 444.3 51.6006 442.6 54.2006Z"
        fill="url(#paint6_linear_323_14)" />
    <path
        d="M486.2 56.3996C483.9 58.8996 481 61.1996 479.9 61.4996C478.5 61.9996 478 62.8996 478.2 64.2996C478.6 67.2996 481.7 67.5996 485.1 65.0996L488 62.8996V78.8996V94.8996L482.8 95.1996C478.3 95.4996 477.5 95.7996 477.5 97.4996C477.5 99.3996 478.3 99.4996 491.8 99.7996L506.1 100.1L505.8 97.7996C505.5 95.7996 504.8 95.4996 500.3 95.1996L495 94.8996L494.8 73.6996C494.5 53.3996 494.4 52.4996 492.5 52.1996C491.2 52.0996 488.9 53.5996 486.2 56.3996Z"
        fill="url(#paint7_linear_323_14)" />
    <path
        d="M134.7 53.5998C133.9 54.3998 133.7 85.3998 134.5 86.1998C134.8 86.4998 138.3 86.0998 142.3 85.2998C160.7 81.6998 170.8 86.7998 172.5 100.5C173.7 109.5 169.2 118.8 162.4 121.6C157.9 123.5 148.5 123.3 143 121.2L138.5 119.5L138 113.1C137.4 106 135.5 103.5 132.6 105.9C131.4 106.9 131 109.1 131 114C131 121.7 131.6 122.6 139.5 126.2C146.5 129.4 160.6 129.5 166.5 126.3C175.1 121.8 179 114.4 179 103C179 91.1998 173.9 83.1998 164.3 79.8998C160.1 78.3998 148.4 78.0998 143.3 79.1998L140 79.8998V69.4998V58.9998L157.8 58.7998L175.5 58.4998V55.9998V53.4998L155.4 53.1998C144.4 53.0998 135.1 53.2998 134.7 53.5998Z"
        fill="url(#paint8_linear_323_14)" />
    <path d="M2.7 184.6C2.3 185 2 188.4 2 192.2C2 197.6 2.3 199.2 3.6 199.7C6.4 200.8 8.5 198.6 8.8 194.1L9.1 190H25.6C41.4 190 42 190.1 42 192C42 196.1 38.1 204.9 33 212.5C22.5 228 17.5 242.2 18.2 254C18.5 259.1 18.7 259.5 21 259.5C23.3 259.5 23.6 259 24.3 254C26.9 235.2 28.8 230.2 38 216.5C45.8 204.9 48.4 198.7 48.4 191L48.5 184.5L25.9 184.2C13.5 184.1 3.1 184.3 2.7 184.6Z"
        fill="url(#paint9_linear_323_14)" />
    <defs>
        <linearGradient id="paint0_linear_323_14" x1="21.1683" y1="116.917" x2="-26.8245" y2="94.2398" gradientUnits="userSpaceOnUse">
            <stop stop-color="#FDE47C" />
            <stop offset="1" stop-color="#D88028" />
        </linearGradient>
        <linearGradient id="paint1_linear_323_14" x1="205.988" y1="117.498" x2="161.191" y2="98.5494" gradientUnits="userSpaceOnUse">
            <stop stop-color="#FDE47C" />
            <stop offset="1" stop-color="#D88028" />
        </linearGradient>
        <linearGradient id="paint2_linear_323_14" x1="85.4937" y1="141.982" x2="44.1936" y2="119.815" gradientUnits="userSpaceOnUse">
            <stop stop-color="#FDE47C" />
            <stop offset="1" stop-color="#D88028" />
        </linearGradient>
        <linearGradient id="paint3_linear_323_14" x1="262.723" y1="141.433" x2="221.635" y2="119.322" gradientUnits="userSpaceOnUse">
            <stop stop-color="#FDE47C" />
            <stop offset="1" stop-color="#D88028" />
        </linearGradient>
        <linearGradient id="paint4_linear_323_14" x1="322.274" y1="110.293" x2="291.53" y2="87.1703" gradientUnits="userSpaceOnUse">
            <stop stop-color="#FDE47C" />
            <stop offset="1" stop-color="#D88028" />
        </linearGradient>
        <linearGradient id="paint5_linear_323_14" x1="379.032" y1="108" x2="349.276" y2="84.6918" gradientUnits="userSpaceOnUse">
            <stop stop-color="#FDE47C" />
            <stop offset="1" stop-color="#D88028" />
        </linearGradient>
        <linearGradient id="paint6_linear_323_14" x1="433.303" y1="141.901" x2="391.435" y2="118.701" gradientUnits="userSpaceOnUse">
            <stop stop-color="#FDE47C" />
            <stop offset="1" stop-color="#D88028" />
        </linearGradient>
        <linearGradient id="paint7_linear_323_14" x1="486.01" y1="108.259" x2="461.138" y2="95.6781" gradientUnits="userSpaceOnUse">
            <stop stop-color="#FDE47C" />
            <stop offset="1" stop-color="#D88028" />
        </linearGradient>
        <linearGradient id="paint8_linear_323_14" x1="145.283" y1="141.506" x2="104.655" y2="119.615" gradientUnits="userSpaceOnUse">
            <stop stop-color="#FDE47C" />
            <stop offset="1" stop-color="#D88028" />
        </linearGradient>
        <linearGradient id="paint9_linear_323_14" x1="15.8365" y1="272.33" x2="-24.0402" y2="251.473" gradientUnits="userSpaceOnUse">
            <stop stop-color="#FDE47C" />
            <stop offset="1" stop-color="#D88028" />
        </linearGradient>
    </defs>
</svg>
