<?xml version="1.0" standalone="no"?>
<!DOCTYPE svg PUBLIC "-//W3C//DTD SVG 20010904//EN"
 "http://www.w3.org/TR/2001/REC-SVG-20010904/DTD/svg10.dtd">
<svg version="1.0" xmlns="http://www.w3.org/2000/svg"
 width="512.000000pt" height="256.000000pt" viewBox="0 0 512.000000 256.000000"
 preserveAspectRatio="xMidYMid meet">

<g transform="translate(0.000000,256.000000) scale(0.100000,-0.100000)"
fill="#000000" stroke="none">
<path d="M58 2528 l-38 -10 0 -64 c0 -62 1 -64 25 -64 21 0 25 5 25 31 0 62
39 89 129 89 58 0 89 -16 119 -60 21 -30 23 -44 20 -107 -5 -115 -56 -161
-189 -171 -96 -7 -93 -27 6 -35 97 -7 154 -38 184 -100 49 -101 10 -241 -77
-279 -32 -15 -56 -18 -84 -14 -81 13 -118 48 -118 112 0 19 -5 24 -25 24 -24
0 -25 -2 -25 -74 0 -86 -8 -81 145 -92 121 -9 192 11 251 69 67 68 85 181 42
267 -19 38 -34 51 -90 79 l-68 34 40 19 c72 36 120 111 120 188 0 14 -10 46
-22 70 -18 35 -35 51 -77 73 -49 24 -64 27 -155 26 -56 -1 -118 -6 -138 -11z"/>
<path d="M690 2519 c-89 -40 -155 -134 -181 -258 -18 -86 -7 -294 19 -360 48
-122 114 -179 221 -188 113 -11 210 47 261 155 55 115 16 274 -82 335 -94 58
-229 41 -295 -37 l-26 -31 6 80 c11 140 48 226 116 272 43 29 108 30 161 3 34
-17 40 -25 46 -65 5 -39 9 -45 31 -45 23 0 24 2 21 67 -3 66 -3 66 -38 79 -58
21 -207 17 -260 -7z m159 -334 c90 -46 109 -299 31 -398 -12 -15 -39 -31 -61
-37 -75 -20 -149 32 -184 129 -48 136 -18 269 69 307 41 18 110 17 145 -1z"/>
<path d="M1215 2521 c-22 -10 -52 -31 -67 -47 -76 -82 -60 -213 34 -289 31
-24 32 -26 14 -37 -46 -26 -106 -93 -122 -133 -24 -64 -16 -151 19 -204 56
-84 199 -122 322 -86 112 32 187 138 170 240 -12 78 -86 164 -166 194 l-23 8
23 12 c36 20 101 82 117 112 8 16 14 52 14 82 0 67 -27 111 -89 144 -58 30
-185 32 -246 4z m176 -26 c89 -46 92 -204 5 -284 l-26 -24 -36 19 c-21 10 -59
39 -86 64 -43 39 -51 52 -55 91 -12 110 99 185 198 134z m-98 -386 c83 -43
154 -98 171 -132 23 -50 21 -117 -6 -157 -38 -55 -72 -74 -133 -74 -61 0 -95
19 -131 72 -27 40 -37 117 -24 179 12 52 55 133 71 133 5 0 29 -10 52 -21z"/>
<path d="M1764 2526 c-93 -41 -157 -144 -158 -256 -1 -156 86 -249 232 -250
70 0 109 15 160 63 l32 31 0 -35 c0 -128 -54 -272 -117 -310 -47 -29 -117 -30
-164 -3 -26 15 -36 29 -43 62 -8 34 -14 42 -33 42 -22 0 -23 -4 -23 -64 l0
-64 38 -14 c61 -21 208 -17 263 8 88 41 153 132 178 252 14 68 14 236 0 304
-25 113 -80 196 -154 229 -48 22 -165 25 -211 5z m139 -27 c42 -22 77 -63 96
-114 27 -71 35 -152 21 -206 -30 -115 -164 -165 -250 -93 -88 75 -77 348 17
406 32 20 85 23 116 7z"/>
<path d="M2345 2523 c-81 -42 -144 -141 -166 -260 -17 -88 -6 -276 18 -345 30
-80 76 -143 131 -175 39 -23 59 -28 117 -28 58 0 78 5 117 28 99 58 149 171
156 352 8 219 -54 372 -173 426 -51 23 -158 25 -200 2z m163 -33 c73 -45 108
-189 99 -415 -6 -168 -23 -231 -76 -288 -33 -35 -43 -40 -82 -40 -59 0 -93 24
-123 86 -37 75 -49 178 -43 347 7 174 22 234 76 290 32 33 44 40 77 40 21 0
54 -9 72 -20z"/>
<path d="M3275 2526 c-84 -26 -86 -30 -83 -104 3 -65 4 -67 31 -70 25 -3 27
-1 27 35 0 21 6 49 13 63 28 57 141 79 205 40 49 -30 76 -97 70 -175 -3 -33
-13 -76 -23 -95 -10 -19 -75 -93 -145 -165 -136 -139 -190 -221 -190 -290 l0
-35 235 0 235 0 0 45 0 45 -190 0 c-184 0 -190 1 -190 20 0 64 66 146 185 229
144 101 194 169 195 263 0 60 -13 95 -53 137 -51 53 -99 71 -197 70 -47 0
-103 -6 -125 -13z"/>
<path d="M3871 2272 c-115 -154 -201 -278 -201 -290 0 -21 4 -22 183 -24 l182
-3 3 -66 c4 -88 -9 -119 -47 -119 -39 0 -61 -9 -61 -26 0 -11 28 -14 150 -14
122 0 150 3 150 14 0 16 -21 26 -55 26 -35 0 -46 30 -43 113 l3 72 53 3 c52 3
52 3 52 37 0 34 0 34 -52 37 l-53 3 -3 253 -2 252 -29 0 c-26 0 -48 -26 -230
-268z m165 -229 c-4 -10 -42 -13 -151 -13 -80 0 -145 3 -145 7 0 3 66 94 148
202 l147 196 3 -190 c1 -104 0 -195 -2 -202z"/>
<path d="M4270 2365 l0 -175 39 0 c101 0 198 -34 232 -81 44 -62 42 -209 -5
-279 -42 -64 -144 -88 -200 -47 -9 7 -20 32 -23 55 -5 36 -9 42 -30 42 -23 0
-24 -2 -21 -67 l3 -68 45 -8 c107 -20 249 11 308 66 70 65 89 200 41 293 -43
84 -155 134 -301 134 l-58 0 0 110 0 110 185 0 185 0 0 45 0 45 -200 0 -200 0
0 -175z"/>
<path d="M2885 2509 c-134 -28 -135 -28 -135 -44 0 -18 2 -18 70 -5 38 7 57 7
66 -1 11 -9 14 -75 14 -338 0 -179 -4 -332 -8 -339 -5 -7 -38 -15 -75 -19 -47
-4 -67 -10 -67 -19 0 -11 39 -14 205 -14 166 0 205 3 205 14 0 9 -20 15 -67
19 -37 4 -70 12 -75 19 -4 7 -8 178 -8 381 0 343 -1 367 -17 366 -10 -1 -58
-9 -108 -20z"/>
<path d="M10 1635 l0 -45 221 0 c184 0 220 -2 216 -14 -3 -7 -51 -75 -106
-150 -176 -236 -244 -351 -271 -459 -6 -23 -13 -50 -16 -59 -5 -16 3 -18 60
-18 66 0 66 0 66 28 0 44 35 172 71 257 35 86 131 249 214 363 40 56 55 85 55
109 l0 33 -255 0 -255 0 0 -45z"/>
<path d="M550 1285 l0 -395 205 0 205 0 0 395 0 395 -205 0 -205 0 0 -395z
m340 5 l0 -330 -135 0 -135 0 0 330 0 330 135 0 135 0 0 -330z"/>
</g>
</svg>
